<?xml version="1.0" encoding="UTF-8" standalone="no"?>
<!-- Created with Inkscape (http://www.inkscape.org/) -->

<svg
   version="1.1"
   id="svg2"
   width="338.88"
   height="72"
   viewBox="0 0 338.88 72"
   sodipodi:docname="demo.svg"
   inkscape:version="1.1.2 (0a00cf5339, 2022-02-04)"
   xmlns:inkscape="http://www.inkscape.org/namespaces/inkscape"
   xmlns:sodipodi="http://sodipodi.sourceforge.net/DTD/sodipodi-0.dtd"
   xmlns="http://www.w3.org/2000/svg"
   xmlns:svg="http://www.w3.org/2000/svg">
  <defs
     id="defs6" />
  <sodipodi:namedview
     id="namedview4"
     pagecolor="#505050"
     bordercolor="#ffffff"
     borderopacity="1"
     inkscape:pageshadow="0"
     inkscape:pageopacity="0"
     inkscape:pagecheckerboard="1"
     showgrid="false"
     inkscape:zoom="3.1486071"
     inkscape:cx="58.438539"
     inkscape:cy="35.888885"
     inkscape:window-width="1280"
     inkscape:window-height="619"
     inkscape:window-x="0"
     inkscape:window-y="32"
     inkscape:window-maximized="1"
     inkscape:current-layer="g8" />
  <g
     inkscape:groupmode="layer"
     inkscape:label="Image"
     id="g8">
    <path
       style="fill:#000000;stroke-width:1"
       d="m 160.72,66.679603 c -1.13232,-1.195145 -1.30729,-1.868563 -0.56,-2.155325 0.86226,-0.330876 0.67012,-5.513504 -0.24,-6.473648 -0.99695,-1.05175 -2.17149,-0.985881 -3.13501,0.175818 -0.9328,1.124669 -1.36855,1.18999 -2.22499,0.333552 -0.93468,-0.934685 -0.79724,-2.247104 0.33355,-3.184989 0.93454,-0.775113 0.94638,-0.825433 0.94092,-4 -0.006,-3.507331 -0.559,-4.655011 -2.24288,-4.655011 -0.77035,0 -2.23159,1.352579 -2.23159,2.065645 0,0.237968 -0.4585,0.950547 -1.01888,1.58351 -0.90372,1.020778 -1.19306,1.150845 -2.56,1.150845 -1.54112,0 -1.54112,0 -1.54112,-1.445382 0,-1.295306 0.14952,-1.58865 1.44,-2.825149 1.44,-1.379763 1.44,-1.379763 1.44,-3.684659 0,-1.7536 -0.11481,-2.348954 -0.48,-2.489088 -0.30667,-0.11768 -0.48,-0.610589 -0.48,-1.36497 0,-0.917942 -0.21067,-1.355507 -0.94645,-1.965763 -1.32076,-1.095447 -1.2722,-2.225008 0.15712,-3.654323 0.62186,-0.621866 1.41838,-1.130666 1.77004,-1.130666 0.35166,0 0.72226,-0.216 0.82357,-0.48 0.10131,-0.264 0.47908,-0.48 0.83951,-0.48 0.86586,0 3.11621,-2.389192 3.11621,-3.308486 0,-0.409139 -0.40978,-1.061407 -0.94645,-1.506526 -1.32076,-1.095447 -1.2722,-2.225006 0.15712,-3.654321 C 153.75253,22.9088 154.54905,22.4 154.90071,22.4 c 0.35166,0 0.72226,-0.216 0.82357,-0.48 0.10131,-0.264 0.45679,-0.48 0.78996,-0.48 0.72427,0 3.16576,-2.352816 3.16576,-3.050785 0,-0.269932 0.432,-0.913079 0.96,-1.429215 0.528,-0.516136 0.96,-1.215877 0.96,-1.554979 0,-0.339101 0.216,-0.699435 0.48,-0.800741 0.264,-0.101307 0.48,-0.533307 0.48,-0.96 0,-0.426694 0.216,-0.858694 0.48,-0.96 0.264,-0.101307 0.48,-0.533307 0.48,-0.96 0,-0.426694 0.216,-0.858694 0.48,-0.96 0.264,-0.101307 0.48,-0.471913 0.48,-0.8235702 0,-0.7389789 2.03501,-2.9007098 2.73067,-2.9007098 0.28884,0 0.46933,0.3115203 0.46933,0.8100432 0,0.4455235 0.21409,0.8921958 0.47575,0.9926048 0.36864,0.1414624 0.26058,0.3713632 -0.48,1.0212157 -0.71339,0.6259823 -0.95919,1.1248883 -0.9693,1.9673953 -0.0102,0.850723 -0.24667,1.32209 -0.96,1.913729 -1.5236,1.263678 -1.29205,4.784588 0.31755,4.828563 0.2728,0.0075 0.84924,0.439453 1.28099,0.96 0.43254,0.521506 1.09962,0.946449 1.48576,0.946449 0.38543,0 0.78366,0.216 0.88497,0.48 0.12043,0.313835 0.61893,0.48 1.44,0.48 0.82108,0 1.31957,0.166165 1.44,0.48 0.10131,0.264 0.53331,0.48 0.96,0.48 0.42669,0 0.85869,0.216 0.96,0.48 0.12191,0.317678 0.62384,0.48 1.48428,0.48 0.86044,0 1.36237,0.162322 1.48428,0.48 0.11365,0.296164 0.60003,0.48 1.26996,0.48 1.55919,0 2.36576,0.927338 2.36576,2.72 0,1.423732 -0.0123,1.44 -1.08576,1.44 -0.66993,0 -1.15631,-0.183836 -1.26996,-0.48 -0.1324,-0.345036 -0.67226,-0.48 -1.92,-0.48 -1.24774,0 -1.7876,-0.134964 -1.92,-0.48 -0.12043,-0.313835 -0.61893,-0.48 -1.44,-0.48 -0.82108,0 -1.31957,-0.166165 -1.44,-0.48 -0.12043,-0.313835 -0.61893,-0.48 -1.44,-0.48 -0.82108,0 -1.31957,-0.166165 -1.44,-0.48 -0.12043,-0.313835 -0.61893,-0.48 -1.44,-0.48 -0.83478,0 -1.31912,-0.164978 -1.44464,-0.49208 -0.1548,-0.403423 -0.72309,-0.47549 -3.15423,-0.4 C 160.16,23.84 160.16,23.84 160.0607,25.218351 c -0.13264,1.841187 1.74076,3.901649 3.54742,3.901649 0.70339,0 1.19227,0.179462 1.3076,0.48 0.12026,0.313389 0.61838,0.48 1.43505,0.48 0.7215,0 1.41945,0.203138 1.64923,0.48 0.25223,0.303919 0.95837,0.48 1.92495,0.48 1.06176,0 1.58266,0.146152 1.71077,0.48 0.10131,0.264 0.53108,0.48 0.95505,0.48 0.42398,0 0.95013,0.216 1.16923,0.48 0.2191,0.264 0.66873,0.48 0.99918,0.48 0.47332,0 0.60082,0.23768 0.60082,1.12 0,1.12 0,1.12 -2.52576,1.12 -1.94993,0 -2.56776,-0.109434 -2.70996,-0.48 -0.14388,-0.374954 -0.78384,-0.48 -2.92428,-0.48 -2.14044,0 -2.7804,-0.105046 -2.92428,-0.48 -0.15301,-0.398733 -1.04298,-0.48 -5.25648,-0.48 -5.07229,0 -5.07229,0 -6.38961,1.253139 -1.57464,1.497917 -1.71929,2.982435 -0.30963,3.177648 0.44,0.06093 0.91516,0.312931 1.0559,0.56 0.20546,0.360672 1.44441,0.449213 6.28576,0.449213 5.06469,0 6.05935,0.07683 6.21406,0.48 0.27121,0.706771 3.90212,0.6772 4.3007,-0.03503 0.26491,-0.47337 0.30421,-0.47337 0.48586,0 0.25441,0.662992 2.00204,0.690157 2.25344,0.03503 0.1185,-0.30881 0.61297,-0.48 1.38645,-0.48 1.30475,0 3.61645,-2.096086 3.61739,-3.28 2.9e-4,-0.365635 0.25034,-0.56192 0.72044,-0.56553 0.87957,-0.0068 2.16,-1.290342 2.16,-2.165337 0,-0.352362 0.216,-0.723547 0.48,-0.824853 0.264,-0.101307 0.48,-0.479136 0.48,-0.839621 0,-0.360485 0.648,-1.27632 1.44,-2.03519 0.79608,-0.762778 1.44,-1.675168 1.44,-2.040379 0,-0.36334 0.216,-0.743504 0.48,-0.84481 0.264,-0.101307 0.48,-0.539148 0.48,-0.972982 0,-0.622616 0.18539,-0.810119 0.88,-0.890043 0.66062,-0.07601 0.90762,-0.300692 0.99079,-0.901255 0.0609,-0.44 0.31293,-0.915156 0.56,-1.055901 0.24706,-0.140745 0.44921,-0.576743 0.44921,-0.968883 0,-0.938125 1.06014,-1.815216 2.19406,-1.815216 1.48269,0 2.67968,1.897639 1.48594,2.35572 -0.264,0.101307 -0.48,0.548713 -0.48,0.994237 0,0.516168 -0.17884,0.810043 -0.49296,0.810043 -0.77657,0 -2.38704,1.339606 -2.38704,1.985563 0,0.321863 -0.648,1.206098 -1.44,1.964968 -0.792,0.758869 -1.44,1.625299 -1.44,1.925401 0,0.300101 -0.432,0.967932 -0.96,1.484068 -0.91749,0.896875 -0.96,1.05865 -0.96,3.653315 0,1.995677 0.119,2.782675 0.44921,2.970784 0.24707,0.140746 0.49907,0.615901 0.56,1.055901 0.0765,0.552435 0.34152,0.832682 0.8564,0.905613 0.89051,0.126137 1.97439,1.134707 1.97439,1.837209 0,0.638845 5.26902,5.897178 5.90916,5.897178 0.26304,0 1.54088,1.08 2.83964,2.4 1.40263,1.425568 2.62557,2.4 3.01206,2.4 0.35787,0 0.73355,0.216 0.83486,0.48 0.10131,0.264 0.47191,0.48 0.82357,0.48 1.01064,0 2.90071,2.092029 2.90071,3.210666 0,0.794156 -0.12817,0.949334 -0.7841,0.949334 -0.43125,0 -0.9138,0.231763 -1.07232,0.515027 -0.26491,0.47337 -0.30421,0.47337 -0.48586,0 -0.1087,-0.283264 -0.48127,-0.515027 -0.82793,-0.515027 -0.34666,0 -1.10327,-0.432 -1.68135,-0.96 -0.57809,-0.528 -1.23325,-0.96 -1.45592,-0.96 -0.22266,0 -1.26083,-0.864 -2.30704,-1.92 -1.04621,-1.056 -2.16393,-1.926099 -2.48384,-1.933552 -0.3199,-0.0075 -0.93488,-0.439453 -1.36663,-0.96 C 191.08476,49.810672 190.64719,49.6 189.72925,49.6 c -0.75438,0 -1.24729,-0.173334 -1.36497,-0.48 -0.10131,-0.264 -0.53331,-0.48 -0.96,-0.48 -0.42669,0 -0.85869,-0.216 -0.96,-0.48 -0.10131,-0.264 -0.53331,-0.48 -0.96,-0.48 -0.42669,0 -0.85869,-0.216 -0.96,-0.48 -0.10131,-0.264 -0.53331,-0.48 -0.96,-0.48 -0.42669,0 -0.85869,-0.216 -0.96,-0.48 -0.12043,-0.313834 -0.61893,-0.48 -1.44,-0.48 -0.82108,0 -1.31957,-0.166166 -1.44,-0.48 -0.12026,-0.313389 -0.61838,-0.48 -1.43505,-0.48 -0.7215,0 -1.41945,-0.203139 -1.64923,-0.48 -0.50803,-0.612138 -2.36274,-0.623258 -2.86574,-0.01718 -0.21126,0.25455 -0.98489,0.50655 -1.71918,0.56 -1.29396,0.09419 -1.33508,0.13168 -1.33508,1.217184 0,1.12 0,1.12 2.23644,1.216362 1.54106,0.0664 2.31711,0.240524 2.4959,0.56 0.1427,0.255001 0.61231,0.463638 1.04356,0.463638 0.57077,0 0.7841,0.174128 0.7841,0.64 0,0.47145 -0.21333,0.64 -0.81004,0.64 -0.44553,0 -0.89293,0.216 -0.99424,0.48 -0.15195,0.395968 -0.99226,0.48 -4.8,0.48 -3.80774,0 -4.64805,0.08403 -4.8,0.48 -0.11646,0.303498 -0.61286,0.482032 -1.34996,0.48553 -1.70305,0.0081 -2.67527,1.131027 -2.54489,2.939452 0.0933,1.293965 0.16056,1.380938 1.14133,1.475456 0.71778,0.06918 1.10198,-0.05534 1.23424,-0.4 0.1672,-0.435715 1.2416,-0.500438 8.30713,-0.500438 8.1151,0 8.1151,0 9.16576,1.045334 1.72119,1.712445 0.92688,2.154666 -3.87015,2.154666 -2.98812,0 -3.88599,0.102634 -4.19918,0.48 -0.2191,0.264 -0.74525,0.48 -1.16923,0.48 -0.42397,0 -0.85374,0.216 -0.95505,0.48 -0.14087,0.367098 -0.74369,0.48 -2.56291,0.48 -2.68027,0 -4.27281,0.784915 -4.27281,2.105942 0,0.388071 -0.216,0.788471 -0.48,0.88978 -0.31383,0.120428 -0.48,0.618924 -0.48,1.44 0,0.821075 -0.16617,1.319568 -0.48,1.44 -0.264,0.101305 -0.48,0.54871 -0.48,0.994236 0,1.143735 -0.87963,1.00106 -2.16,-0.350355 z m 3.6641,-19.768816 c 0.14074,-0.247069 0.6159,-0.499069 1.0559,-0.56 1.1689,-0.161872 1.3357,-2.504985 0.25913,-3.640275 -0.83402,-0.879523 -2.41536,-1.061155 -2.70341,-0.310512 -0.10131,0.264 -0.53331,0.48 -0.96,0.48 -0.42669,0 -0.85869,0.216 -0.96,0.48 -0.12752,0.332314 -0.64625,0.48 -1.68596,0.48 -2.3025,0 -2.99364,1.226125 -1.54976,2.74937 0.87558,0.923708 6.05605,1.17815 6.5441,0.321417 z m -11.48413,-5.07543 c 0.12736,-0.661306 -0.79641,-1.106912 -1.28397,-0.619357 -0.48756,0.487555 -0.042,1.411331 0.61936,1.283974 0.30651,-0.05903 0.60559,-0.358105 0.66461,-0.664617 z m 29.7568,-1.302221 c 0.12862,-2.481315 -0.74894,-3.505504 -2.87271,-3.35271 -1.20048,0.08637 -1.39875,0.205686 -1.49485,0.899574 -0.0609,0.44 -0.31293,0.915155 -0.56,1.055901 -0.98125,0.558989 -0.31592,2.464099 0.86055,2.464099 0.29797,0 0.62771,0.223949 0.73274,0.497667 0.14373,0.374567 0.56776,0.473507 1.71424,0.4 C 182.56,42.4 182.56,42.4 182.65677,40.533136 Z M 91.144742,65.278077 c -0.460544,-0.506435 -0.469244,-0.613923 -0.06233,-0.770071 0.346256,-0.13287 0.446764,-0.589468 0.375257,-1.704742 C 91.360349,61.285462 91.35557,61.279635 90.123554,61.178509 88.511334,61.046176 87.752592,60.299462 87.624,58.718576 87.538739,57.670384 87.388899,57.421395 86.792432,57.336752 85.699619,57.181674 83.622045,55.192109 84.286618,54.937091 84.710582,54.7744 84.8,54.180992 84.8,51.530042 84.8,48.32 84.8,48.32 85.904032,48.32 c 1.104029,0 1.104029,0 1.2,1.84 0.08317,1.594678 0.181299,1.84 0.735968,1.84 0.525507,0 0.657757,-0.246416 0.739251,-1.37743 0.05979,-0.829815 0.282429,-1.447722 0.56,-1.554237 C 89.392662,48.971091 89.6,48.546934 89.6,48.125763 89.6,47.447312 89.744131,47.36 90.864099,47.36 c 0.813632,0 1.363856,-0.178256 1.544035,-0.500221 0.253863,-0.453625 0.318608,-0.453625 0.695085,0 0.341059,0.410954 1.221917,0.499235 4.935962,0.494691 4.338989,-0.0053 4.549779,-0.03608 5.240819,-0.7651 0.83787,-0.88392 0.91402,-1.415002 0.24,-1.673648 -0.264,-0.101309 -0.48,-0.472493 -0.48,-0.824855 0,-1.583539 -1.20225,-2.159382 -4.520819,-2.165337 C 96.176147,41.921338 95.342966,41.805053 95.04,41.44 c -0.320374,-0.386026 -1.301066,-0.48 -5.009226,-0.48 -3.803347,0 -4.64312,0.08406 -4.795052,0.48 -0.137149,0.357405 -0.706698,0.48 -2.229959,0.48 C 80.96,41.92 80.96,41.92 80.96,40.8 c 0,-0.985037 0.09761,-1.12 0.810042,-1.12 0.445526,0 0.892931,-0.216 0.994236,-0.48 0.101309,-0.264 0.533309,-0.48 0.96,-0.48 0.426695,0 0.858695,-0.216 0.96,-0.48 0.120432,-0.313834 0.618925,-0.48 1.44,-0.48 0.821076,0 1.319572,-0.166166 1.44,-0.48 0.101309,-0.264 0.533309,-0.48 0.96,-0.48 0.426695,0 0.858695,-0.216 0.96,-0.48 0.101309,-0.264 0.533309,-0.48 0.96,-0.48 0.426695,0 0.858695,-0.216 0.96,-0.48 0.101309,-0.264 0.499543,-0.48 0.88497,-0.48 0.386138,0 1.053226,-0.424944 1.485763,-0.946448 0.437402,-0.52737 1.108247,-0.952451 1.515031,-0.96 1.057094,-0.01962 1.217964,-0.846182 0.344009,-1.767541 -0.719206,-0.75822 -0.928259,-0.795209 -4.524093,-0.800482 -3.115769,-0.0046 -3.803123,0.08067 -3.960649,0.49118 C 86.94176,31.437571 85.76,30.482055 85.76,29.77338 c 0,-0.660862 1.299331,-1.61338 2.200819,-1.61338 0.506448,0 1.10008,-0.216 1.319181,-0.48 0.219101,-0.264 0.733578,-0.48 1.14328,-0.48 0.409706,0 0.860074,-0.202147 1.000819,-0.449214 0.140746,-0.247068 0.615901,-0.499068 1.055901,-0.56 0.542781,-0.07517 0.832867,-0.342208 0.902227,-0.830556 0.123152,-0.867119 8.835053,-9.68023 9.569063,-9.68023 0.2785,0 1.34918,-0.864 2.37928,-1.92 1.03011,-1.056 2.10384,-1.92 2.38607,-1.92 0.76784,0 2.03153,-1.339448 2.03783,-2.16 0.004,-0.5219674 0.19499,-0.72 0.69436,-0.72 0.42047,0 1.4185,-0.7480147 2.56174,-1.92 1.74032,-1.7840726 1.97474,-1.92 3.31117,-1.92 1.04416,0 1.43826,0.1273498 1.43826,0.4647619 0,0.6890109 -3.06879,3.6322816 -3.91192,3.7519235 -0.52405,0.074362 -0.75645,0.3499197 -0.82933,0.9833146 -0.0744,0.646425 -0.27845,0.88 -0.76883,0.88 -0.39449,0 -1.43373,0.785416 -2.54049,1.92 -1.07161,1.098549 -2.15028,1.92 -2.52122,1.92 -1.08199,0 -1.14201,0.938385 -0.1144,1.788609 0.69149,0.572126 1.25055,0.746682 2.20619,0.688851 1.26483,-0.07654 1.28117,-0.09371 1.37895,-1.448767 0.099,-1.371307 0.099,-1.371307 0.95126,-0.4 0.46877,0.534219 1.1052,0.971307 1.41429,0.971307 0.93271,0 4.1725,3.514283 3.96208,4.29778 -0.0978,0.364221 -0.17981,0.76662 -0.18221,0.89422 -0.0103,0.548127 -2.14793,-0.260959 -2.87322,-1.087518 -0.79263,-0.903292 -0.799,-0.904482 -4.84817,-0.904482 -3.30881,0 -4.08838,-0.08828 -4.2387,-0.48 -0.23218,-0.605056 -1.0509,-0.62321 -1.38838,-0.03078 -0.14074,0.247068 -0.6159,0.499068 -1.0559,0.56 -1.09447,0.151564 -1.11462,1.346346 -0.0253,1.500209 0.42608,0.06018 1.14215,0.528183 1.59126,1.04 0.44911,0.511816 1.1291,0.930575 1.51107,0.930575 0.38198,0 0.77739,0.216 0.8787,0.48 0.10131,0.264 0.53331,0.48 0.96,0.48 0.42669,0 0.85869,0.216 0.96,0.48 0.12191,0.317678 0.62384,0.48 1.48428,0.48 0.86044,0 1.36237,0.162322 1.48428,0.48 0.11885,0.309711 0.614,0.48 1.39572,0.48 0.78172,0 1.27687,0.170289 1.39572,0.48 0.10131,0.264 0.54871,0.48 0.99424,0.48 0.81004,0 0.81004,0 0.17004,0.64 -0.83029,0.830293 -5.24966,0.957567 -5.55572,0.16 -0.10131,-0.264 -0.53331,-0.48 -0.96,-0.48 -0.42669,0 -0.85869,-0.216 -0.96,-0.48 -0.29286,-0.763165 -0.82912,-0.570458 -2.18463,0.785051 -1.48829,1.488294 -1.63585,2.973333 -0.31404,3.160562 0.87835,0.124414 1.97439,1.131632 1.97439,1.814387 0,0.682947 -3.05365,0.682947 -3.31572,0 -0.26641,-0.69425 -4.942152,-0.69425 -5.208558,0 -0.101309,0.264 -0.466084,0.48 -0.810618,0.48 -0.344531,0 -0.989926,0.432 -1.434208,0.96 -0.444285,0.528 -1.09993,0.96 -1.456989,0.96 -0.869184,0 -3.261235,2.40663 -3.019133,3.037536 0.140324,0.365677 0.721508,0.482464 2.400948,0.482464 1.674406,0 2.260809,0.11728 2.4,0.48 0.256265,0.667824 2.086137,0.631734 2.346313,-0.04628 0.119626,-0.311738 -0.01491,-0.684851 -0.330041,-0.915277 C 98.101962,37.748509 98.044029,35.84 98.699187,35.84 c 0.685338,0 5.620813,4.984877 5.620813,5.677075 0,0.328919 0.63971,1.143322 1.42157,1.809783 0.89875,0.766089 1.45777,1.52462 1.52,2.062448 0.0701,0.605894 0.30946,0.880624 0.83177,0.954697 0.85422,0.121149 2.94666,2.099975 2.94666,2.786663 0,0.67342 -3.05699,0.663584 -3.31572,-0.01066 -0.14126,-0.368119 -0.74829,-0.48 -2.60428,-0.48 -1.85599,0 -2.46302,0.111881 -2.60428,0.48 -0.15291,0.398473 -1.03779,0.48 -5.209778,0.48 -5.025584,0 -5.025584,0 -5.742166,0.969228 -0.569299,0.77002 -0.696768,1.312628 -0.620179,2.64 0.09398,1.62874 0.122621,1.6733 1.138605,1.77121 0.717779,0.06917 1.101974,-0.05534 1.234233,-0.4 0.153159,-0.39912 0.737834,-0.500438 2.887843,-0.500438 2.101076,0 2.736445,-0.105895 2.88,-0.48 0.132404,-0.345037 0.67226,-0.48 1.920002,-0.48 1.24774,0 1.7876,-0.134964 1.92,-0.48 0.26874,-0.70032 2.83309,-0.642628 3.55572,0.08 0.74016,0.740156 -0.0883,1.68 -1.48082,1.68 -0.50645,0 -1.10008,0.216 -1.31918,0.48 -0.26425,0.318406 -0.98107,0.48 -2.12923,0.48 -1.24334,0 -1.782735,0.135196 -1.915048,0.48 -0.145892,0.380185 -0.82586,0.481148 -3.269959,0.485529 -3.313347,0.0059 -4.525763,0.581219 -4.525763,2.147479 0,1.717996 3.835523,4.184899 4.364278,2.806982 0.101309,-0.264 0.533309,-0.48 0.96,-0.48 0.426695,0 0.858695,-0.216 0.96,-0.48 0.120432,-0.313834 0.618925,-0.48 1.44,-0.48 0.821072,0 1.319572,-0.166166 1.440002,-0.48 0.12043,-0.313834 0.61892,-0.48 1.44,-0.48 0.82107,0 1.31957,-0.166166 1.44,-0.48 0.14564,-0.379526 0.81336,-0.48 3.18996,-0.48 3.00576,0 3.00576,0 3.00576,1.12 0,1.094787 -0.0291,1.12 -1.29004,1.12 -0.85151,0 -1.35266,0.163171 -1.47424,0.48 -0.1324,0.345037 -0.67226,0.48 -1.92,0.48 -1.24774,0 -1.7876,0.134963 -1.92,0.48 -0.12043,0.313834 -0.61892,0.48 -1.44,0.48 -0.82107,0 -1.31957,0.166166 -1.44,0.48 -0.10131,0.264 -0.53331,0.48 -0.959998,0.48 -0.426695,0 -0.858695,0.216 -0.96,0.48 -0.131085,0.341594 -0.664458,0.48 -1.84978,0.48 -1.479593,0 -1.744841,0.1072 -2.375344,0.96 -0.834108,1.128192 -2.429548,1.281699 -3.305856,0.318077 z m 11.612908,-37.40043 c 0.75167,-0.751669 1.24017,-1.541596 1.23682,-2 C 103.98777,24.95858 102.71732,23.68 101.8108,23.68 c -0.36245,0 -0.78519,-0.225499 -0.93943,-0.501109 -0.48359,-0.864126 -3.083005,-0.49925 -3.217629,0.451653 -0.05844,0.4128 -0.742442,1.360116 -1.52,2.105147 -1.633975,1.565623 -1.653187,1.637537 -0.693741,2.596877 0.624995,0.624927 1.073315,0.724375 3.397648,0.753676 2.677642,0.03376 2.677642,0.03376 3.920002,-1.208597 z M 21.44,64.175901 c 0,-0.431255 -0.225099,-0.910071 -0.50022,-1.064035 -0.453627,-0.253863 -0.453627,-0.318608 0,-0.695085 0.352212,-0.292311 0.50022,-0.984887 0.50022,-2.340685 0,-1.425904 0.138041,-2.02648 0.531994,-2.314544 C 22.918748,57.069267 22.262922,56.32 20.710222,56.32 c -1.173236,0 -1.50049,0.149629 -2.099623,0.96 -1.441472,1.949696 -2.853619,0.787674 -2.995637,-2.465037 C 15.52,52.64 15.52,52.64 14.4778,52.539562 c -0.717782,-0.06917 -1.101978,0.05534 -1.234236,0.4 -0.10562,0.275241 -0.54115,0.500438 -0.967844,0.500438 -0.426693,0 -0.854421,0.204867 -0.950505,0.455258 C 11.005976,54.727181 9.92,53.25473 9.92,51.989958 c 0,-0.709286 -0.1787219,-1.198627 -0.48,-1.314236 -0.701377,-0.269146 -0.701377,-6.042298 0,-6.311444 0.264,-0.101305 0.48,-0.47671 0.48,-0.834236 0,-1.905962 2.700786,-2.579351 3.890599,-0.970042 0.675294,0.913386 0.822603,0.96 3.033679,0.96 1.660062,0 2.397022,-0.128323 2.579821,-0.449213 0.140745,-0.247069 0.615901,-0.499069 1.055901,-0.56 1.126595,-0.156016 1.269581,-1.614825 0.262379,-2.676905 -0.59811,-0.630695 -1.062207,-0.783898 -2.388143,-0.788352 -1.163918,-0.0039 -1.699691,-0.146064 -1.829956,-0.48553 -0.238056,-0.620362 -1.130504,-0.620362 -1.36856,0 -0.432391,1.126794 -3.31572,0.06491 -3.31572,-1.22112 0,-1.161024 2.215423,-2.427936 4.414708,-2.524595 C 18.4,34.72 18.4,34.72 18.49859,33.532186 18.663769,31.542119 17.568198,30.4 15.494058,30.4 c -1.185323,0 -1.718696,-0.138405 -1.849778,-0.48 -0.148855,-0.387908 -0.885591,-0.48 -3.8400003,-0.48 -2.954409,0 -3.6911459,-0.09209 -3.84,-0.48 C 5.8629731,28.696 5.4155667,28.48 4.9700432,28.48 4.2647619,28.48 4.16,28.341566 4.16,27.409596 4.16,25.888362 4.9699437,25.28 6.99524,25.28 c 1.1846662,0 1.7179718,-0.138443 1.8490397,-0.48 0.1013062,-0.264 0.4995421,-0.48 0.8849683,-0.48 0.386137,0 1.053224,-0.424943 1.485764,-0.946449 0.431743,-0.520547 1.101832,-0.952547 1.489087,-0.96 0.387255,-0.0075 0.819255,-0.215698 0.96,-0.462765 0.140745,-0.247068 0.615901,-0.499068 1.055901,-0.56 0.547936,-0.07588 0.83277,-0.341846 0.904004,-0.844123 C 15.741629,19.717283 17.715792,17.6 18.371484,17.6 18.608068,17.6 18.9809,17.384 19.2,17.12 c 0.2191,-0.264 0.711488,-0.48 1.094194,-0.48 0.382706,0 1.049074,-0.425902 1.480818,-0.946449 0.431743,-0.520547 1.079743,-0.952547 1.44,-0.96 0.360256,-0.0075 1.008256,-0.439453 1.44,-0.96 0.431743,-0.520547 1.081908,-0.952547 1.444809,-0.96 C 26.808311,12.799001 28.16,11.223964 28.16,10.412958 28.16,10.121685 28.441823,9.92 28.848829,9.92 c 0.420468,0 1.4185,-0.7480147 2.561743,-1.92 2.151319,-2.2054061 2.835934,-2.4193571 2.815876,-0.88 -0.0098,0.7520611 -0.275587,1.2573354 -0.96,1.8249885 -0.520547,0.4317437 -0.952547,1.0797435 -0.96,1.4399995 -0.0075,0.360257 -0.439452,1.008257 -0.959999,1.44 C 30.52026,12.510232 30.4,12.821003 30.4,14.270752 c 0,1.181048 -0.138652,1.713981 -0.48,1.844968 -0.264,0.101307 -0.48,0.409233 -0.48,0.68428 0,0.275047 0.216,0.582973 0.48,0.68428 0.264,0.101306 0.48,0.48147 0.48,0.84481 0,0.363393 0.636068,1.270078 1.413741,2.015219 0.777558,0.745031 1.461558,1.692347 1.52,2.105147 0.09538,0.673729 0.293184,0.760324 1.932665,0.846108 1.826407,0.09556 1.826407,0.09556 6.187114,-4.24 C 44.057754,16.466347 46.065142,14.72 46.437158,14.72 c 0.342612,0 0.705815,-0.216 0.80712,-0.48 0.408996,-1.065823 3.315722,-0.08398 3.315722,1.12 0,0.52792 -1.238749,1.6 -1.848742,1.6 -0.312807,0 -0.936196,0.418759 -1.385306,0.930577 -0.449114,0.511817 -1.165181,0.979817 -1.591261,1.04 -0.526272,0.07433 -0.808557,0.348516 -0.880304,0.855036 -0.135261,0.954925 -1.073849,1.893513 -2.028774,2.028774 -0.542554,0.07685 -0.773187,0.345273 -0.846867,0.985613 -0.07992,0.694612 -0.267428,0.88 -0.890045,0.88 -0.433834,0 -0.871674,0.216 -0.972979,0.48 -0.101309,0.264 -0.44937,0.48 -0.773472,0.48 -0.750116,0 -2.22225,1.349213 -2.22225,2.036695 0,0.689286 -1.131725,1.801841 -1.84,1.808834 -1.110544,0.01096 -2,1.400888 -2,3.125338 0,1.127613 -0.141856,1.655095 -0.48,1.784855 -0.381619,0.146438 -0.48,0.828886 -0.48,3.32966 0,3.145472 0,3.145472 1.73921,4.970045 1.356044,1.422602 1.949414,1.824573 2.693334,1.824573 1.062285,0 5.167456,3.683466 5.167456,4.636624 0,0.722051 4.33648,4.963376 5.07473,4.963376 0.339238,0 0.699683,0.216 0.800992,0.48 0.101305,0.264 0.469852,0.48 0.818998,0.48 0.63289,0 3.86528,2.956387 3.86528,3.535238 0,0.758749 -1.327558,1.584762 -2.547008,1.584762 -1.148666,0 -1.492637,-0.22417 -3.682637,-2.4 -1.328595,-1.32 -2.666441,-2.406099 -2.972992,-2.413552 -0.30655,-0.0075 -0.910608,-0.439453 -1.342352,-0.96 C 41.070688,52.384346 39.47912,52.117232 39.155722,52.96 c -0.120432,0.313834 -0.618925,0.48 -1.44,0.48 -0.821076,0 -1.319572,0.166166 -1.44,0.48 -0.101309,0.264 -0.439156,0.48 -0.750775,0.48 -0.311622,0 -0.745846,0.216 -0.964947,0.48 -0.219101,0.264 -0.745251,0.48 -1.169226,0.48 -0.423974,0 -0.853747,0.216 -0.955052,0.48 -0.116464,0.303498 -0.612865,0.482032 -1.349958,0.48553 -1.309136,0.0062 -2.605764,1.08368 -2.605764,2.165337 0,0.352362 -0.216,0.723546 -0.48,0.824855 -0.29776,0.114259 -0.48,0.601523 -0.48,1.283392 C 27.52,61.972992 25.857738,64 24.731077,64 24.317937,64 23.897027,64.216 23.79572,64.48 23.45546,65.366704 21.44,65.106528 21.44,64.175901 Z M 27.08428,54.56 c 0.139188,-0.36272 0.725591,-0.48 2.4,-0.48 1.674409,0 2.260811,-0.11728 2.4,-0.48 0.101306,-0.264 0.439154,-0.48 0.750773,-0.48 0.311622,0 0.745846,-0.216 0.964947,-0.48 0.219101,-0.264 0.733578,-0.48 1.14328,-0.48 0.409706,0 0.860074,-0.202147 1.000819,-0.449213 C 35.884845,51.463718 36.36,51.211718 36.8,51.150787 38.269926,50.947229 38.120736,48.605443 36.536944,47.021648 35.022659,45.507363 34.863405,45.489008 33.92,46.72 c -0.594282,0.775443 -0.974531,0.96 -1.977905,0.96 -0.808964,0 -1.306419,0.167402 -1.426375,0.48 -0.119516,0.311456 -0.616041,0.48 -1.414056,0.48 -0.737426,0 -1.333064,0.18441 -1.487608,0.460566 -0.163028,0.291316 -0.903844,0.497108 -2.015901,0.56 C 23.84,49.76 23.84,49.76 23.740028,51.152179 c -0.08961,1.247847 0.02651,1.51825 1.12,2.608195 1.32801,1.323703 1.938873,1.543309 2.224252,0.799626 z M 24,47.84 c 0.282925,-0.340902 1.031517,-0.48 2.583282,-0.48 1.540736,0 2.260364,-0.132442 2.440817,-0.449213 0.140745,-0.247069 0.615901,-0.499069 1.055901,-0.56 0.731895,-0.101357 0.8,-0.246995 0.8,-1.710787 0,-1.463792 -0.0681,-1.60943 -0.8,-1.710787 -0.44,-0.06093 -0.915156,-0.312931 -1.055901,-0.56 -0.337482,-0.592423 -1.156197,-0.574269 -1.388379,0.03078 -0.132402,0.345037 -0.672257,0.48 -1.92,0.48 -1.247742,0 -1.787597,0.134963 -1.92,0.48 -0.120429,0.313833 -0.618924,0.48 -1.44,0.48 -0.821075,0 -1.31957,0.166166 -1.44,0.48 -0.101306,0.264 -0.47249,0.48 -0.824853,0.48 -1.362513,0 -2.813385,2.450816 -1.957534,3.306665 C 18.590668,48.564 23.587638,48.336867 24,47.84 Z m 4.349368,-10.8 c 0.524298,-0.496982 0.761287,-1.079562 0.765103,-1.880819 0.0031,-0.652359 0.222864,-1.341187 0.501708,-1.572608 0.900645,-0.747469 0.456182,-2.05189 -0.738379,-2.167012 -0.717782,-0.06917 -1.101978,0.05534 -1.234236,0.4 C 27.537944,32.094803 27.12234,32.32 26.72,32.32 c -0.40234,0 -0.814414,0.216 -0.91572,0.48 -0.101307,0.264 -0.476713,0.48 -0.834237,0.48 -0.577697,0 -3.210043,2.25911 -3.210043,2.754896 0,1.69201 5.051785,2.462579 6.589368,1.005104 z M 25.554051,30.233989 C 26.277457,29.471344 26.309103,28.48 25.610043,28.48 25.428519,28.48 25.28,28.199419 25.28,27.856487 25.28,26.229504 23.958249,25.567094 20.911336,25.667084 18.08,25.76 18.08,25.76 17.980867,27.135018 c -0.112716,1.56342 0.847018,2.929635 2.064897,2.939453 0.377169,0.003 0.76865,0.221529 0.869956,0.485529 0.335962,0.875502 3.724556,0.637331 4.638331,-0.326011 z M 30.959591,25.76 c 0.07153,-1.150415 -0.09402,-1.46803 -1.635313,-3.137303 -1.714902,-1.857302 -1.714902,-1.857302 -3.59959,-1.76 -2.857201,0.147512 -2.83526,1.112786 0.09323,4.101414 2.112287,2.155665 2.228148,2.224483 3.622086,2.151394 1.43925,-0.07547 1.440042,-0.07617 1.519591,-1.355505 z M 232.24,58.48104 c -0.8078,-0.809306 -0.72282,-1.055795 0.90014,-2.610864 1.3526,-1.296026 1.45276,-1.501834 1.36,-2.794618 -0.0901,-1.255273 -0.1886,-1.405737 -0.98014,-1.496812 -0.96945,-0.111549 -1.24916,-1.128615 -0.4,-1.454468 0.70304,-0.269779 0.66436,-3.033619 -0.0463,-3.306313 -0.31173,-0.119626 -0.68485,0.01491 -0.91527,0.330041 -0.21395,0.292596 -0.62513,0.531994 -0.91373,0.531994 -0.6997,0 -0.73936,-2.089162 -0.0447,-2.355722 0.264,-0.101305 0.48,-0.531078 0.48,-0.955052 0,-0.423975 0.216,-0.950125 0.48,-1.169226 0.264,-0.219101 0.48,-0.653325 0.48,-0.964947 0,-0.311619 0.216,-0.649466 0.48,-0.750775 0.264,-0.101305 0.48,-0.531078 0.48,-0.955052 0,-0.423975 -0.216,-0.950125 -0.48,-1.169226 -0.65124,-0.540477 -0.60628,-2.113715 0.08,-2.8 0.77577,-0.77577 1.60018,0.04864 1.73946,1.739459 0.0845,1.025357 0.22847,1.238256 0.90054,1.331328 0.44,0.06093 0.91516,0.312931 1.0559,0.56 0.19629,0.344563 1.10949,0.449213 3.92,0.449213 3.45077,0 3.6641,0.03726 3.6641,0.64 0,0.562864 -0.21333,0.64 -1.77004,0.64 -1.27818,0 -1.82123,0.133386 -1.95424,0.48 -0.11885,0.309712 -0.614,0.48 -1.39572,0.48 -1.19092,0 -1.6455,0.39928 -1.3662,1.2 0.10442,0.299347 1.54195,0.4 5.71287,0.4 5.20394,0 5.57333,0.03913 5.57333,0.590403 0,1.287719 -1.78511,2.103287 -2.56,1.169597 -0.30377,-0.366016 -1.13203,-0.48 -3.48792,-0.48 -3.01061,0 -3.11043,0.02378 -3.90613,0.930576 -0.44911,0.511818 -1.16518,0.979818 -1.59126,1.04 -0.65119,0.09198 -0.77469,0.287981 -0.77469,1.229424 0,1.076029 0.0503,1.124077 1.28,1.223824 0.704,0.0571 1.39516,0.309104 1.5359,0.56 0.2031,0.362048 1.21003,0.456176 4.88,0.456176 4.41077,0 4.6241,0.02954 4.6241,0.64 0,0.534163 -0.21333,0.64 -1.29004,0.64 -0.85151,0 -1.35266,0.163171 -1.47424,0.48 -0.1454,0.378902 -0.80901,0.48 -3.15077,0.48 -2.19763,0 -3.06615,0.119965 -3.35069,0.462819 -0.21126,0.254551 -0.98489,0.506551 -1.71918,0.56 -1.19007,0.08662 -1.34608,0.192762 -1.43633,0.977181 -0.0747,0.649229 -0.27791,0.88 -0.77486,0.88 -0.37464,0 -1.25284,0.604054 -1.97874,1.36104 -1.24365,1.296902 -1.33154,1.334602 -1.86515,0.8 z m 4.91765,-4.683392 c 1.30726,-1.307261 1.66596,-2.775181 0.76283,-3.121744 -0.60755,-0.233139 -2.06759,1.124077 -2.07495,1.928819 -0.003,0.332595 -0.24493,0.779773 -0.53752,0.993725 -0.56784,0.415216 -0.39726,1.441552 0.23959,1.441552 0.20223,0 0.92675,-0.559059 1.61005,-1.242352 z M 297.92,56.337779 c 0,-1.12272 3.9853,-5.414608 4.29014,-4.620189 0.13467,0.350919 1.2236,0.44241 5.26558,0.44241 4.23441,0 5.12694,0.08114 5.28,0.48 0.10131,0.264 0.54871,0.48 0.99424,0.48 0.98359,0 1.10386,0.914906 0.22484,1.710403 -0.50006,0.452554 -1.44493,0.529597 -6.49501,0.529597 -5.90981,0 -5.90981,0 -6.6948,0.946448 -1.13752,1.371494 -2.86499,1.390384 -2.86499,0.03133 z M 327.89136,55.36 c -0.97766,-1.056 -2.03718,-1.926099 -2.35446,-1.933552 -0.31732,-0.0075 -0.93015,-0.439453 -1.36189,-0.96 C 323.74246,51.944944 323.07539,51.52 322.68925,51.52 c -0.38544,0 -0.78365,-0.216 -0.88496,-0.48 -0.10131,-0.264 -0.53331,-0.48 -0.96,-0.48 -0.42669,0 -0.8587,-0.216 -0.96001,-0.48 -0.10131,-0.264 -0.47671,-0.48 -0.83424,-0.48 -0.83073,0 -1.84815,-1.012269 -1.98443,-1.974387 -0.0704,-0.497075 -0.35415,-0.780816 -0.85122,-0.851226 -0.9548,-0.135241 -1.97439,-1.151683 -1.97439,-1.968291 0,-0.423965 -0.29014,-0.706723 -0.87607,-0.853782 -0.48183,-0.120932 -1.2339,-0.627677 -1.67125,-1.126096 -0.87875,-1.001431 -2.46293,-1.244576 -2.77696,-0.426218 -0.11202,0.291917 -0.59623,0.48 -1.23572,0.48 -0.63949,0 -1.1237,-0.188083 -1.23572,-0.48 -0.12043,-0.313834 -0.61893,-0.48 -1.44,-0.48 -0.82108,0 -1.31957,-0.166166 -1.44,-0.48 -0.10131,-0.264 -0.40923,-0.48 -0.68428,-0.48 -0.27505,0 -0.58297,0.216 -0.68428,0.48 -0.15269,0.397901 -1.0267,0.48 -5.10996,0.48 -4.92576,0 -4.92576,0 -4.92576,-0.96 0,-1.105222 0.97775,-2.24 1.93004,-2.24 0.35753,0 0.73293,-0.216 0.83424,-0.48 0.10131,-0.264 0.51338,-0.48 0.91572,-0.48 0.40234,0 0.81441,-0.216 0.91572,-0.48 0.10131,-0.264 0.55323,-0.48 1.00428,-0.48 0.45105,0 0.90297,-0.216 1.00428,-0.48 0.11786,-0.307152 0.61112,-0.48 1.36978,-0.48 0.94626,0 1.32886,-0.193789 1.89534,-0.96 0.39037,-0.528 0.95745,-0.962438 1.26018,-0.965421 0.30273,-0.0029 1.23864,-0.650982 2.0798,-1.44 0.84116,-0.789019 1.75802,-1.434579 2.03746,-1.434579 0.62311,0 11.63316,-11.017063 11.63316,-11.640563 0,-0.245603 0.864,-1.34335 1.92,-2.439437 1.056,-1.096087 1.92,-2.183759 1.92,-2.417049 0,-0.477471 4.99248,-5.582951 5.45939,-5.582951 0.59523,0 1.58061,1.296691 1.58061,2.08 0,0.962653 -0.94963,1.989235 -1.9744,2.134387 -0.51187,0.07251 -0.78061,0.35396 -0.85731,0.897816 -0.0692,0.490447 -1.37949,2.066122 -3.44,4.136648 -1.83056,1.839446 -3.32829,3.551292 -3.32829,3.804103 0,0.723744 -8.77572,9.277202 -9.64439,9.400123 -0.93346,0.13209 -1.30212,2.058693 -0.45605,2.383358 0.37612,0.14433 0.50044,0.663738 0.50044,2.090759 0,2.221219 0.89097,3.792806 2.15022,3.792806 0.41243,0 0.83275,0.216 0.93406,0.48 0.10131,0.264 0.45679,0.48 0.78996,0.48 0.79202,0 1.80676,1.032643 1.94015,1.974387 0.0716,0.505392 0.35404,0.780714 0.87671,0.854567 0.45002,0.06358 1.72687,1.096243 3.06647,2.48 2.00438,2.07048 2.43913,2.371046 3.42969,2.371046 0.62391,0 1.31364,0.216 1.53274,0.48 0.2191,0.264 0.61501,0.48 0.87981,0.48 0.80192,0 5.52019,5.095866 5.52019,5.961955 0,0.831735 -1.02134,2.038045 -1.72554,2.038045 -0.24502,0 -1.24544,-0.864 -2.2231,-1.92 z M 307.76,38.90937 c 1.02562,-1.081991 0.98042,-2.914628 -0.0965,-3.912676 -1.0895,-1.009715 -2.06779,-0.95408 -3.05756,0.173882 -0.44911,0.511818 -1.16518,0.979818 -1.59126,1.04 -1.21561,0.171702 -1.1442,2.30672 0.0819,2.448419 0.47112,0.05445 1.02875,0.306448 1.23919,0.56 0.61877,0.745584 2.59323,0.567047 3.42423,-0.309625 z M 296,50.229958 c 0,-0.85151 -0.16317,-1.352659 -0.48,-1.474236 -0.264,-0.101309 -0.48,-0.441383 -0.48,-0.755722 0,-0.314339 0.216,-0.654413 0.48,-0.755722 0.264,-0.101305 0.48,-0.54871 0.48,-0.994236 0,-1.275575 2.15146,-1.2101 2.29875,0.06996 0.10125,0.88 0.10125,0.88 6.5879,0.966646 5.97235,0.07978 6.53686,0.136864 7.12,0.72 0.88916,0.889168 0.81108,1.593354 -0.17669,1.593354 -0.44553,0 -0.89293,0.216 -0.99424,0.48 -0.12811,0.33385 -0.64901,0.48 -1.71077,0.48 -0.96658,0 -1.67272,-0.17608 -1.92495,-0.48 -0.29631,-0.35703 -1.08773,-0.48 -3.08923,-0.48 -2.09667,0 -2.73153,0.10599 -2.87505,0.48 -0.12043,0.313834 -0.61892,0.48 -1.44,0.48 -0.82107,0 -1.31957,0.166166 -1.44,0.48 -0.11365,0.296163 -0.60003,0.48 -1.26996,0.48 C 296.03096,51.52 296,51.48321 296,50.229958 Z m -31.84509,-2.14126 c -0.7012,-0.748813 -1.52691,-1.363101 -1.83491,-1.365088 -0.70275,-0.0045 -1.84,-1.115024 -1.84,-1.796714 0,-0.282205 -0.9931,-1.506205 -2.2069,-2.72 C 256.38548,40.319274 255.90434,40 254.94734,40 c -0.69935,0 -1.18793,-0.179974 -1.30306,-0.48 -0.13967,-0.363971 -0.73051,-0.48 -2.44428,-0.48 -1.71377,0 -2.30461,-0.116029 -2.44428,-0.48 -0.12008,-0.312925 -0.61781,-0.48 -1.42996,-0.48 -0.89401,0 -1.24576,-0.135533 -1.24576,-0.48 0,-0.692954 1.17014,-1.76 1.93004,-1.76 0.35753,0 0.73293,-0.216 0.83424,-0.48 0.13026,-0.339466 0.66604,-0.481619 1.82996,-0.48553 1.72934,-0.0058 3.08576,-0.898441 3.08576,-2.030681 0,-0.278301 1.728,-2.236126 3.84,-4.35072 2.21885,-2.221576 3.84,-4.102217 3.84,-4.454656 0,-0.335467 0.216,-0.692827 0.48,-0.794133 0.264,-0.101307 0.48,-0.548713 0.48,-0.994237 0,-0.980566 0.7026,-1.067444 1.57526,-0.194785 0.49864,0.498643 0.52897,0.64837 0.16,0.789957 -0.27882,0.106991 -0.46051,0.643671 -0.46881,1.384742 -0.0105,0.94107 -0.22393,1.384533 -0.96,1.995031 -0.52151,0.43254 -0.94645,1.099627 -0.94645,1.485764 0,0.385426 -0.216,0.783662 -0.48,0.884968 -0.31383,0.12043 -0.48,0.618925 -0.48,1.44 0,0.821076 -0.16617,1.319571 -0.48,1.44 -0.39227,0.150528 -0.48,0.937074 -0.48,4.303333 0,4.119139 0,4.119139 1.44,5.643609 0.792,0.838461 1.44,1.765303 1.44,2.059645 0,0.294346 0.41876,0.902631 0.93058,1.351741 0.51181,0.449114 0.97981,1.165181 1.04,1.591261 0.081,0.573238 0.33826,0.801021 0.98942,0.875945 1.01386,0.11666 1.14127,0.757476 0.31491,1.583834 -0.54011,0.540115 -0.62142,0.504925 -1.84,-0.79639 z m -5.69287,-8.934973 c 0.11962,-0.311738 -0.0149,-0.684851 -0.33005,-0.915277 -0.66228,-0.484275 -0.68988,-1.309386 -0.052,-1.55417 0.36812,-0.141257 0.48,-0.748288 0.48,-2.604278 0,-3.259677 -0.41128,-3.382634 -2.87307,-0.858944 -1.56461,1.603946 -2.10067,1.955459 -3.10877,2.038544 -1.15972,0.09558 -1.21816,0.154125 -1.21816,1.2204 0,0.976406 0.10982,1.132691 0.85658,1.218995 0.47112,0.05445 1.02875,0.306448 1.23919,0.56 0.21043,0.253552 0.87348,0.461005 1.47346,0.461005 0.67445,0 1.16117,0.183226 1.27505,0.48 0.25431,0.662717 1.99942,0.626947 2.25776,-0.04628 z M 291.2,32.8 c 0,-0.682755 1.09604,-1.689973 1.97439,-1.814387 0.66283,-0.09389 0.75665,-0.300847 0.84506,-1.864147 0.0982,-1.736868 0.13102,-1.789106 2.66223,-4.24 C 298.09122,23.51666 299.3843,22.4 299.55519,22.4 c 0.61613,0 2.20481,-1.412854 2.20481,-1.960785 0,-0.308235 1.16073,-1.721155 2.5794,-3.139821 2.45115,-2.45116 2.65001,-2.579394 4,-2.579394 1.36511,0 1.4206,0.0375 1.4206,0.96 0,1.021377 -0.95827,2.24 -1.76144,2.24 -0.48008,0 -5.91856,5.137444 -5.91856,5.590956 0,0.544829 1.49331,1.758391 2.17004,1.763515 0.40153,0.003 0.81293,0.221529 0.91424,0.485529 0.10131,0.264 0.52879,0.48 0.94996,0.48 0.66182,0 0.76576,0.15202 0.76576,1.12 0,1.12 0,1.12 -2.04576,1.12 -1.52326,0 -2.09281,-0.122596 -2.22996,-0.48 -0.28323,-0.738091 -5.90145,-0.696066 -6.18632,0.04628 -0.11962,0.311737 0.0149,0.684852 0.33005,0.915277 0.29259,0.213952 0.53199,0.596328 0.53199,0.849726 0,0.616394 0.64506,1.228722 1.2944,1.228722 0.65964,0 1.5856,0.995805 1.5856,1.705197 0,0.474272 -0.50708,0.534803 -4.48,0.534803 -3.76889,0 -4.48,-0.07619 -4.48,-0.48 z m -44.27572,-0.96 c -0.10131,-0.264 -0.53331,-0.48 -0.96,-0.48 -0.42669,0 -0.85869,-0.216 -0.96,-0.48 -0.13919,-0.362719 -0.72559,-0.48 -2.4,-0.48 -1.67441,0 -2.26081,-0.117281 -2.4,-0.48 -0.13956,-0.363692 -0.7294,-0.48 -2.43424,-0.48 -1.76397,0 -2.25004,-0.101388 -2.25004,-0.469333 0,-0.627853 2.1296,-2.730667 2.76545,-2.730667 0.66196,0 3.95455,-3.301471 3.95455,-3.965217 0,-0.892068 1.12004,-1.799908 1.49237,-1.209634 0.4124,0.653777 1.38763,0.257086 1.38763,-0.564439 0,-0.765613 2.04588,-2.90071 2.77949,-2.90071 0.285,0 1.36098,-0.864 2.39108,-1.92 1.03011,-1.056 2.13305,-1.92 2.45099,-1.92 0.31795,0 0.89747,-0.432 1.28784,-0.96 0.42241,-0.571346 1.00091,-0.96 1.42892,-0.96 0.40383,0 1.10118,-0.435354 1.59042,-0.992905 0.75233,-0.8573692 0.87126,-0.9057238 0.87126,-0.354236 0,0.351267 -0.216,0.721555 -0.48,0.822861 -0.28209,0.10825 -0.48,0.588289 -0.48,1.16428 0,0.575991 0.19791,1.05603 0.48,1.16428 0.31383,0.120429 0.48,0.618924 0.48,1.44 0,0.821075 0.16617,1.31957 0.48,1.44 0.264,0.101306 0.48,0.533306 0.48,0.96 0,0.426693 0.216,0.858693 0.48,0.96 0.79372,0.304578 0.66772,3.31572 -0.13875,3.31572 -0.43711,0 -0.64846,-0.258321 -0.72,-0.88 C 258.4,20 258.4,20 255.36,20 c -3.04,0 -3.04,0 -3.14044,1.0422 -0.0692,0.717782 0.0553,1.101978 0.4,1.234236 0.35957,0.13798 0.50044,0.632786 0.50044,1.7578 0,2.017256 -0.51192,2.044646 -2.35053,0.125764 -1.45181,-1.515191 -2.02951,-1.752832 -2.33375,-0.96 -0.13783,0.359176 -0.71928,0.481392 -2.30996,0.485529 -2.03244,0.0053 -3.56576,0.756644 -3.56576,1.747293 0,0.425249 3.55133,3.687178 4.01431,3.687178 0.78933,0 1.74569,1.227166 1.74569,2.24 0,1.048147 -1.0404,1.405949 -1.39572,0.48 z M 250.72,20.64 c 0,-0.556622 -0.24579,-0.652684 -1.88664,-0.737361 -1.988,-0.102592 -2.648,0.196463 -2.31999,1.051229 0.3264,0.850598 4.20663,0.561084 4.20663,-0.313868 z m 5.14937,-3.76 c 0.41777,-0.396 0.75957,-0.864 0.75957,-1.04 0,-0.574184 -1.50177,-1.76 -2.22894,-1.76 -0.69572,0 -2.22356,1.172583 -2.23447,1.714897 -0.0116,0.57788 1.46827,1.794293 2.18937,1.799574 0.41519,0.003 1.0967,-0.318471 1.51447,-0.714471 z"
       id="path1045" />
  </g>
</svg>
