<?xml version="1.0" encoding="UTF-8" standalone="no"?>
<!-- Created with Inkscape (http://www.inkscape.org/) -->

<svg
   version="1.1"
   id="svg2"
   width="251.59319"
   height="58.188564"
   viewBox="0 0 251.59319 58.188564"
   sodipodi:docname="hzl_condensed.svg"
   inkscape:version="1.1.2 (0a00cf5339, 2022-02-04)"
   xmlns:inkscape="http://www.inkscape.org/namespaces/inkscape"
   xmlns:sodipodi="http://sodipodi.sourceforge.net/DTD/sodipodi-0.dtd"
   xmlns="http://www.w3.org/2000/svg"
   xmlns:svg="http://www.w3.org/2000/svg">
  <defs
     id="defs6" />
  <sodipodi:namedview
     id="namedview4"
     pagecolor="#505050"
     bordercolor="#ffffff"
     borderopacity="1"
     inkscape:pageshadow="0"
     inkscape:pageopacity="0"
     inkscape:pagecheckerboard="1"
     showgrid="false"
     inkscape:zoom="2.7420847"
     inkscape:cx="71.113777"
     inkscape:cy="12.399325"
     inkscape:window-width="1280"
     inkscape:window-height="619"
     inkscape:window-x="0"
     inkscape:window-y="32"
     inkscape:window-maximized="1"
     inkscape:current-layer="g8"
     fit-margin-top="0"
     fit-margin-left="0"
     fit-margin-right="0"
     fit-margin-bottom="0" />
  <g
     inkscape:groupmode="layer"
     inkscape:label="Image"
     id="g8"
     transform="translate(-14.394815,-8.6400002)">
    <path
       id="path965"
       style="fill:#000000;stroke-width:1"
       d="m 261.66,57.291147 c -1.04499,-1.049869 -2.00077,-1.913869 -2.12397,-1.92 -0.47987,-0.02387 -3.03901,-1.946656 -4.24096,-3.186429 -0.69574,-0.717593 -1.42249,-1.304717 -1.61507,-1.304717 -0.19258,0 -0.91258,-0.576 -1.6,-1.28 -1.0696,-1.095369 -1.4455,-1.28 -2.60605,-1.28 -0.74592,0 -1.44518,-0.144 -1.55395,-0.32 -0.10877,-0.176 -0.54077,-0.32 -0.96,-0.32 -0.41923,0 -0.85123,-0.144 -0.96,-0.32 -0.10877,-0.176 -1.2649,-0.32 -2.56915,-0.32 -1.77824,0 -2.65639,0.160083 -3.51085,0.64 -0.62672,0.352 -1.41459,0.64 -1.75085,0.64 -0.33625,0 -0.70038,0.144 -0.80915,0.32 -0.27709,0.448336 -2.51171,0.400279 -2.976,-0.064 -0.50723,-0.507238 -0.4871,-0.896 0.0464,-0.896 0.23674,0 0.69104,-0.288 1.0096,-0.64 0.31856,-0.352 0.90838,-0.64 1.31072,-0.64 0.40234,0 0.82051,-0.144 0.92928,-0.32 0.10877,-0.176 0.61277,-0.32 1.12,-0.32 0.50723,0 1.01123,-0.144 1.12,-0.32 0.10877,-0.176 0.59616,-0.32 1.0831,-0.32 0.53885,0 1.18893,-0.323833 1.66112,-0.827481 0.42669,-0.455117 1.36423,-1.095988 2.08346,-1.42416 2.55958,-1.167914 2.55226,-2.013066 -0.0275,-3.188359 -0.73443,-0.334576 -1.52051,-0.831446 -1.74685,-1.10416 -0.22633,-0.27271 -0.54633,-0.49584 -0.7111,-0.49584 -0.16477,0 -0.83114,-0.419984 -1.4808,-0.933296 -1.59213,-1.257814 -3.46691,-2.266704 -4.21226,-2.266704 -0.33625,0 -0.70038,-0.144 -0.80915,-0.32 -0.31789,-0.514371 -1.91997,-0.369658 -3.24976,0.293555 -0.67664,0.337456 -1.48224,0.692938 -1.79024,0.789959 -0.40669,0.128105 -0.56,0.516003 -0.56,1.416848 0,1.328985 0.42781,1.861865 2.08,2.590774 2.3417,1.033117 3.3577,1.641744 4.56,2.731638 0.572,0.518525 1.04,1.058525 1.04,1.200001 0,0.528176 -1.84138,0.234496 -2.4,-0.382775 -0.38637,-0.426925 -0.9856,-0.64 -1.79987,-0.64 -0.67136,0 -1.73341,-0.288 -2.36013,-0.64 -0.62672,-0.352 -1.41459,-0.64 -1.75085,-0.64 -0.33625,0 -0.70038,-0.144 -0.80915,-0.32 -0.10877,-0.176 -1.18877,-0.32 -2.4,-0.32 -1.21123,0 -2.29123,0.144 -2.4,0.32 -0.10877,0.176 -0.76528,0.32 -1.45888,0.32 -1.10467,0 -1.26112,-0.09182 -1.26112,-0.740131 0,-0.733376 -1.09619,-1.928851 -2.47565,-2.699869 -0.39363,-0.22 -1.64307,-0.4 -2.77657,-0.4 -1.99245,0 -2.07764,0.03352 -2.56436,1.009165 -0.97561,1.955709 -0.58403,2.815389 1.77248,3.891283 0.63578,0.290256 1.33741,0.7464 1.5592,1.013648 0.2218,0.267248 0.7233,0.485904 1.1145,0.485904 0.39117,0 0.97184,0.288 1.2904,0.64 0.31856,0.352 0.82499,0.64 1.12538,0.64 0.30041,0 1.66598,0.576 3.03462,1.28 1.36864,0.704 2.63712,1.28 2.81891,1.28 0.18176,0 1.31386,0.463789 2.51578,1.030643 1.92899,0.909757 2.18531,1.134957 2.18531,1.920001 0,0.736595 -0.13814,0.889356 -0.80435,0.889356 -0.44237,0 -1.09037,-0.144 -1.44,-0.32 -0.3496,-0.176 -0.92365,-0.464 -1.27565,-0.64 -0.352,-0.176 -0.928,-0.464 -1.28,-0.64 -0.352,-0.176 -0.964,-0.491049 -1.36,-0.700112 -4.06154,-2.144211 -6.84218,-3.459888 -7.31242,-3.459888 -0.3134,0 -0.65881,-0.144 -0.76758,-0.32 -0.10877,-0.176 -0.68477,-0.32 -1.28,-0.32 -0.59523,0 -1.17123,-0.144 -1.28,-0.32 -0.10877,-0.176 -1.18877,-0.32 -2.4,-0.32 -1.21123,0 -2.29123,0.144 -2.4,0.32 -0.10877,0.176 -0.61277,0.32 -1.12,0.32 -0.50723,0 -1.01123,0.144 -1.12,0.32 -0.10877,0.176 -0.45495,0.32 -0.76929,0.32 -0.31434,0 -0.83215,0.288 -1.15071,0.64 -0.39099,0.432039 -0.98559,0.64 -1.82987,0.64 -1.21276,0 -1.24764,-0.03082 -1.15041,-1.016333 0.10149,-1.028556 1.36492,-2.106886 2.53112,-2.160278 0.76328,-0.03495 2.34658,-0.891245 3.01636,-1.631344 0.32488,-0.358989 1.06817,-0.947805 1.65175,-1.308477 1.12422,-0.694813 1.447,-2.009626 0.68129,-2.775331 -0.29302,-0.293015 -0.20718,-0.563466 0.37579,-1.184 0.41552,-0.44233 1.02039,-0.804237 1.3441,-0.804237 0.32371,0 0.91059,-0.178704 1.30422,-0.397117 1.0017,-0.555843 6.95565,-6.394616 6.95565,-6.821099 0,-0.192623 0.33981,-0.66947 0.75517,-1.059659 0.41533,-0.390191 1.02733,-1.27764 1.36,-1.97211 0.46918,-0.979515 0.78781,-1.263496 1.42083,-1.266344 1.75837,-0.0079 2.06669,1.334158 0.624,2.716329 -0.528,0.505856 -0.96,1.048165 -0.96,1.205132 0,0.349485 -2.73197,3.114868 -3.07722,3.114868 -0.13628,0 -0.65164,0.386941 -1.14528,0.859869 -1.14476,1.096752 -1.22566,2.551206 -0.16435,2.954717 0.40323,0.153308 0.92487,0.509744 1.15917,0.792076 0.23434,0.282336 0.60678,0.513338 0.82768,0.513338 0.2209,0 0.5831,0.218656 0.8049,0.485904 0.22179,0.267248 0.89372,0.718646 1.49318,1.003107 1.04074,0.493856 1.15792,0.483511 2.59594,-0.229206 2.32486,-1.152269 2.62598,-1.504224 2.62598,-3.069402 0,-1.162979 0.1016,-1.390403 0.62112,-1.390403 0.3416,0 0.71011,-0.144 0.81888,-0.32 0.10877,-0.176 0.67114,-0.32 1.24973,-0.32 0.57856,0 1.50608,-0.226547 2.06112,-0.503437 C 233.78259,32.061578 234,31.748943 234,31.005305 c 0,-1.58379 0.84182,-2.525304 2.25792,-2.525304 0.67338,0 1.31331,-0.144 1.42208,-0.32 0.10877,-0.176 0.66634,-0.32 1.23901,-0.32 0.73923,0 1.30803,-0.27846 1.96099,-0.96 0.50586,-0.528 1.04835,-0.96 1.20554,-0.96 0.6303,0 6.63446,-5.342778 6.63446,-5.903645 0,-0.544474 2.02659,-2.416356 2.61606,-2.416356 0.67316,0 1.30272,0.795419 1.17037,1.478736 -0.0585,0.302214 -0.53843,0.785819 -1.06643,1.074679 -0.528,0.288859 -1.10214,0.840511 -1.27587,1.225892 -0.17373,0.385382 -0.41728,0.700694 -0.54119,0.700694 -0.12393,0 -0.97625,0.72 -1.89408,1.6 -0.91782,0.88 -1.83996,1.6 -2.04921,1.6 -0.57709,0 -1.43965,1.088067 -1.43965,1.816033 0,0.904703 0.92691,2.663967 1.40358,2.663967 0.21818,0 0.81056,0.432 1.31642,0.96 0.50586,0.528 1.10186,0.96 1.32448,0.96 0.22259,0 0.9129,0.523267 1.53402,1.162819 0.62112,0.639552 1.51145,1.361078 1.97852,1.603395 1.05104,0.54529 1.50868,0.229101 2.35399,-1.626473 0.76345,-1.675865 1.48685,-2.316753 2.88899,-2.559447 2.08733,-0.361289 2.63389,1.045034 0.8,2.058391 -0.528,0.291756 -1.12678,0.86248 -1.33062,1.268272 -0.20388,0.405788 -1.30004,1.690729 -2.43594,2.855424 -1.13594,1.164691 -2.15344,2.371779 -2.26118,2.682422 -0.10772,0.31064 -0.52356,0.691363 -0.92407,0.846048 -0.76425,0.295168 -1.73981,1.307773 -2.39907,2.490179 -0.55757,1.000033 0.19117,2.298913 1.73309,3.006522 0.66979,0.307367 1.56688,0.930912 1.99357,1.385651 0.42668,0.454736 0.9367,0.826797 1.13337,0.826797 0.19667,0 0.99959,0.656752 1.78423,1.45945 0.78464,0.802697 1.89961,1.685466 2.47769,1.961712 0.57808,0.276243 1.19514,0.771491 1.37127,1.10055 0.17609,0.32906 0.45971,0.598288 0.63027,0.598288 0.42397,0 4.87677,3.439261 5.19955,4.016045 0.14282,0.255175 0.46848,0.463955 0.72374,0.463955 0.56132,0 0.6136,1.002493 0.0801,1.536001 -0.86525,0.86526 -2.02003,0.420156 -3.956,-1.524855 z M 247.28,44.800001 c 0,-0.657661 -0.17373,-0.816995 -0.97635,-0.895526 -0.65677,-0.06426 -1.16458,0.112441 -1.55136,0.539833 -0.81031,0.895402 -0.36045,1.366157 1.19709,1.252656 1.18012,-0.086 1.33062,-0.187436 1.33062,-0.896963 z m 1.28,-5.12 c 0.50586,-0.528 1.09824,-0.96 1.31642,-0.96 0.47667,0 1.40358,-1.759264 1.40358,-2.663968 0,-0.879498 -0.90765,-1.816032 -1.76,-1.816032 -0.38544,0 -0.96144,-0.288 -1.28,-0.64 -0.31856,-0.352 -0.71094,-0.64 -0.87194,-0.64 -0.16102,0 -0.89468,-0.400403 -1.6304,-0.889783 -2.34268,-1.55831 -2.83414,-1.705928 -5.34553,-1.605692 -2.36909,0.09455 -2.39315,0.104309 -2.49693,1.012091 -0.12544,1.097499 1.01523,2.436149 2.60867,3.061365 0.58048,0.227756 1.19056,0.712217 1.35578,1.076579 0.16518,0.364362 0.87635,0.981187 1.58035,1.370723 0.704,0.389533 1.33002,0.9752 1.3911,1.301482 0.15207,0.811837 1.65133,2.353235 2.2889,2.353235 0.28614,0 0.93414,-0.432 1.44,-0.96 z m -39.74402,26.379652 c -0.44192,-0.96609 -0.19518,-1.579504 1.29999,-3.232 0.88505,-0.978163 0.91961,-1.707651 0.0809,-1.707651 -0.22294,0 -0.71782,-0.332615 -1.09973,-0.739146 -0.61096,-0.650339 -0.6465,-0.842275 -0.29578,-1.597504 0.21923,-0.472096 0.56806,-0.859482 0.77517,-0.860855 0.9859,-0.0065 1.93282,-4.425203 1.06344,-4.962496 -0.176,-0.108774 -0.32,-0.540774 -0.32,-0.96 0,-0.419225 -0.144,-0.851225 -0.32,-0.96 -0.7138,-0.441152 -0.2478,-0.832659 0.88,-0.739318 1.06931,0.0885 1.21162,0.203866 1.30678,1.059318 0.14896,1.339293 0.91956,2.08 2.16394,2.08 0.57834,0 1.14051,0.144 1.24928,0.32 0.27843,0.450512 3.15235,0.399648 3.616,-0.064 0.29866,-0.298665 0.46934,-0.298665 0.768,0 0.25414,0.254144 1.62845,0.384 4.064,0.384 2.86221,0 3.59466,0.08534 3.296,0.384 -0.2112,0.2112 -0.384,0.640336 -0.384,0.953636 0,0.525497 -0.52426,0.576329 -6.76541,0.656 -5.87398,0.07499 -6.80915,0.155808 -7.09757,0.613408 -0.26176,0.415324 -0.12169,0.737513 0.6608,1.52 l 0.99296,0.992957 h 6.68884 6.68883 l 0.74275,0.790617 c 0.61616,0.655875 0.6735,0.874026 0.33658,1.28 -0.31869,0.383991 -1.15168,0.489383 -3.86807,0.489383 -1.96278,0 -3.54758,-0.138573 -3.65971,-0.32 -0.10877,-0.176 -0.90077,-0.32 -1.76,-0.32 -0.85923,0 -1.65123,0.144 -1.76,0.32 -0.10877,0.176 -0.91123,0.32 -1.78323,0.32 -2.16839,0 -4.11619,1.109452 -4.16016,2.369596 -0.0777,2.227025 -2.6079,3.663066 -3.40063,1.930055 z" />
    <path
       id="path951"
       style="fill:#000000;stroke-width:1"
       d="m 24.448779,61.63707 c -0.283441,-0.61167 -0.238499,-0.904521 0.232885,-1.517504 0.321258,-0.41776 0.587307,-0.939564 0.59122,-1.159564 0.0039,-0.22 0.212569,-0.4 0.463679,-0.4 0.602664,0 1.463437,-1.764029 1.463437,-2.999101 0,-0.7529 -0.387512,-1.373162 -1.667844,-2.669597 l -1.667844,-1.688823 1.347844,-1.373353 C 26.299352,48.721358 26.56,48.229713 26.56,47.286776 c 0,-0.642954 -0.144,-1.258 -0.32,-1.366775 -0.176,-0.108774 -0.32,-0.50399 -0.32,-0.878262 0,-0.374269 -0.287375,-0.986384 -0.638611,-1.360259 -0.555727,-0.591546 -0.586876,-0.791146 -0.24,-1.537898 0.527326,-1.135223 0.887709,-0.963123 1.791117,0.855331 0.733842,1.477143 0.785431,1.512311 2.08,1.417898 L 30.24,44.320001 30.338918,42.7661 c 0.121537,-1.909229 -0.513387,-2.766099 -2.049629,-2.766099 -0.578335,0 -1.140515,-0.144 -1.249289,-0.32 -0.108774,-0.176 -0.441272,-0.323203 -0.738885,-0.327117 C 26.003501,39.348971 25.4,39.064174 24.96,38.720001 c -0.872919,-0.682806 -4.270939,-0.917152 -4.64,-0.32 -0.108774,0.176 -0.684774,0.32 -1.28,0.32 -0.595226,0 -1.171226,0.144 -1.28,0.32 -0.381201,0.616797 -1.735533,0.389933 -3.331372,-0.558038 -0.2623,-0.155815 1.05844,-1.378477 1.992284,-1.84434 0.526579,-0.262691 1.585246,-0.477622 2.352594,-0.477622 0.767348,0 1.645224,-0.1272 1.950836,-0.282666 0.305612,-0.155465 0.969096,-0.477129 1.474409,-0.714812 1.115049,-0.524477 1.388263,-1.125527 0.880911,-1.937927 -0.209739,-0.335846 -0.301602,-0.739651 -0.204141,-0.897347 0.30083,-0.486754 2.138605,-1.286004 3.013643,-1.310636 0.967066,-0.02722 2.59119,-0.908259 2.925383,-1.586928 0.127206,-0.258326 0.416305,-0.865684 0.642442,-1.349684 0.226137,-0.484 0.666327,-0.88 0.978199,-0.88 0.311873,0 0.656038,-0.144 0.764812,-0.32 0.108774,-0.176 0.527148,-0.32 0.929722,-0.32 1.267427,0 2.750278,-0.931491 2.750278,-1.727657 0,-0.821352 1.223395,-2.112343 2.001738,-2.112343 0.286272,0 0.609488,-0.144 0.718262,-0.32 0.108774,-0.176 0.527149,-0.32 0.929722,-0.32 1.312563,0 2.540915,-0.884861 5.646758,-4.067724 5.798224,-5.94201 6.956899,-6.945931 7.498179,-6.49671 0.266938,0.221539 0.485341,0.658007 0.485341,0.969929 0,0.610239 -5.208678,5.896568 -6.410384,6.505949 -0.399738,0.202705 -0.873434,0.603496 -1.052656,0.890646 -0.779213,1.248446 2.059379,4.588806 5.137386,6.045507 1.399907,0.662521 1.675273,0.932608 1.68,1.647787 0.0034,0.518249 -0.3521,1.213138 -0.902039,1.763077 -0.499229,0.499231 -0.967229,1.065716 -1.04,1.258856 -0.294246,0.78097 -3.145296,3.642683 -3.62911,3.642683 -0.285472,0 -0.644791,0.330752 -0.798487,0.735008 -0.153696,0.404253 -0.651644,1.088253 -1.10655,1.52 -0.920685,0.873811 -1.106909,2.389354 -0.441043,3.589334 0.546678,0.985188 6.391184,6.955658 6.808909,6.955658 0.185916,0 1.047206,0.72 1.913974,1.6 0.866768,0.88 1.768954,1.6 2.004858,1.6 0.235904,0 1.228828,0.864 2.206499,1.92 0.977667,1.056 2.045001,1.92 2.371853,1.92 0.326851,0 0.748406,0.288 0.93679,0.64 0.188384,0.352 0.528349,0.64 0.755478,0.64 0.22713,0 0.747197,0.35578 1.155709,0.790618 0.616163,0.655875 0.67353,0.874026 0.336599,1.28 -0.736333,0.887229 -1.612717,0.520534 -3.419143,-1.430618 -1.900544,-2.052816 -2.551769,-2.293132 -3.468643,-1.28 -0.605699,0.66929 -2.219456,0.871012 -2.56,0.32 -0.274966,-0.444905 -1.870816,-0.401184 -2.336,0.064 -0.298666,0.298666 -0.469334,0.298666 -0.768,0 -0.472282,-0.472281 -5.888979,-0.528412 -6.176,-0.064 -0.11832,0.191447 -2.225245,0.32 -5.244653,0.32 -4.700905,0 -5.151497,0.05296 -6.572977,0.772608 -1.570686,0.795181 -3.06237,2.568631 -3.06237,3.64082 0,0.334061 -0.288,0.868016 -0.64,1.186573 -0.352,0.318556 -0.64,0.772873 -0.64,1.009596 0,0.284464 -0.406886,0.429556 -1.2,0.427908 -0.948721,-0.0019 -1.273545,-0.16121 -1.551221,-0.760436 z m 29.152997,-8.83903 c 0.565258,-0.624602 0.555782,-0.667629 -0.350403,-1.591111 -0.512256,-0.522032 -1.084432,-0.953149 -1.271504,-0.958038 -0.187072,-0.0049 -0.754013,-0.44089 -1.259869,-0.96889 -0.505856,-0.528 -1.08648,-0.96 -1.290272,-0.96 -0.203795,0 -0.631171,-0.288 -0.949728,-0.64 -0.318557,-0.352 -0.727594,-0.64 -0.908973,-0.64 -0.181379,0 -0.6524,-0.303088 -1.046713,-0.673526 -0.710295,-0.667287 -1.401997,-0.602183 -1.40681,0.132413 -0.0037,0.562307 -1.650822,1.255795 -2.04544,0.861177 -0.422547,-0.422547 -8.410918,-0.422605 -8.672064,-6.4e-5 -0.108774,0.176 -1.221933,0.32 -2.473688,0.32 -2.320788,0 -3.446312,0.487901 -3.446312,1.493939 0,0.239111 -0.171336,0.709098 -0.380748,1.04442 -0.463413,0.742041 -0.04029,1.364723 1.423584,2.095001 0.784791,0.391508 2.360915,0.48664 8.062329,0.48664 4.698467,0 7.204672,-0.117836 7.43648,-0.349644 0.252861,-0.252861 0.530489,-0.252861 1.002963,0 0.359325,0.192304 1.734285,0.349644 3.055469,0.349644 1.321184,0 2.491149,0.144 2.599923,0.32 0.325546,0.526743 1.301712,0.3632 1.921776,-0.321961 z M 36.64,45.440001 c 0.108774,-0.176 1.188774,-0.32 2.4,-0.32 1.211226,0 2.291226,0.144 2.4,0.32 0.262035,0.423984 2.625053,0.412515 2.888662,-0.01402 0.313188,-0.506745 -0.369136,-1.149174 -2.177798,-2.05047 -2.339859,-1.166 -5.813056,-1.160426 -8.168035,0.01312 C 33.068272,43.844376 32.32,44.34052 32.32,44.491172 c 0,0.847687 3.85872,1.695207 4.32,0.948839 z m 5.44,-4.16 c 0.559162,-0.617869 0.558678,-0.662669 -0.01405,-1.295526 -0.751232,-0.830103 -2.486202,-0.752013 -2.651376,0.119334 -0.134998,0.712128 0.80447,1.816192 1.545424,1.816192 0.297443,0 0.801443,-0.288 1.12,-0.64 z m -5.862992,-0.53159 c 0.323069,-0.292375 0.896272,-0.688375 1.273786,-0.88 1.22984,-0.624269 1.405705,-1.281741 0.633084,-2.366791 C 37.739043,36.961169 37.031738,36.320702 36.55209,36.078359 36.072438,35.836017 35.392,35.481988 35.04,35.29163 34.688,35.101271 33.136656,34.332238 31.592566,33.582666 28.594267,32.127156 28.208908,32.12513 26.48,33.555786 c -1.359089,1.12464 0.161586,3.658602 2.96,4.932369 0.616,0.280387 1.616248,1.023254 2.222773,1.650816 0.941125,0.973763 1.312689,1.14102 2.534805,1.14102 0.885616,0 1.65616,-0.202835 2.01943,-0.53159 z M 41.12,36.832036 c 0.528,-0.308653 1.121856,-0.883312 1.319683,-1.277021 0.197824,-0.393705 0.737824,-1.110525 1.2,-1.592931 C 44.101856,33.479678 44.48,32.863178 44.48,32.592087 c 0,-0.735334 -2.01088,-2.192086 -3.025923,-2.192086 -0.261037,0 -0.98737,-0.288 -1.614077,-0.64 -0.626707,-0.352 -1.414589,-0.64 -1.750848,-0.64 -0.336259,0 -0.700378,-0.144 -0.809152,-0.32 -0.108774,-0.176 -0.479226,-0.32 -0.823229,-0.32 -0.344,0 -0.894912,-0.16828 -1.224249,-0.373954 C 34.310966,27.530527 32.32,28.564248 32.32,29.618244 c 0,0.88982 2.286195,3.546349 3.445738,4.003904 0.399158,0.157507 0.863593,0.648957 1.03208,1.092115 0.168489,0.443156 0.498966,0.805738 0.734393,0.805738 0.235427,0 0.841933,0.432 1.347789,0.96 1.05664,1.102893 0.97696,1.090371 2.24,0.352035 z M 47.429008,30.17203 C 48.271053,29.342646 48.96,28.433587 48.96,28.151899 c 0,-0.566058 -1.596,-2.231898 -2.138326,-2.231898 -0.18882,0 -0.527716,-0.222197 -0.753104,-0.493772 -0.852983,-1.027782 -3.831191,-2.101533 -5.55137,-2.001467 -1.499011,0.0872 -1.645402,0.16594 -1.734368,0.932873 -0.121398,1.046531 0.875718,2.885141 1.823312,3.362049 0.393069,0.197825 1.109366,0.737825 1.591773,1.2 0.482406,0.462174 1.022281,0.840317 1.199725,0.840317 0.17744,0 0.736502,0.432 1.242358,0.96 0.505856,0.528 0.99585,0.96 1.088877,0.96 0.09303,0 0.858086,-0.678587 1.700131,-1.507971 z" />
    <path
       id="path941"
       style="fill:#000000;stroke-width:1"
       d="M 158.04633,64.8258 C 157.75685,64.383995 157.52,63.895576 157.52,63.740424 c 0,-0.433334 0.96273,-2.264342 1.30026,-2.472947 0.16486,-0.101885 0.29974,-0.464749 0.29974,-0.806362 0,-0.449187 -0.22144,-0.621113 -0.8,-0.621113 -0.57856,0 -0.8,-0.171927 -0.8,-0.621114 0,-0.341613 0.144,-0.710112 0.32,-0.818886 0.58748,-0.363085 0.36587,-2.579303 -0.32,-3.200001 -0.93591,-0.846985 -0.80875,-2.118588 0.32,-3.2 0.77404,-0.74158 0.96,-1.18519 0.96,-2.290134 0,-0.777245 -0.27701,-1.8636 -0.64,-2.509866 -0.6463,-1.150688 -0.86311,-2.72 -0.37578,-2.72 0.35995,0 1.65578,1.405315 1.65578,1.79568 0,0.172938 0.54607,0.847658 1.21349,1.499376 1.2152,1.186608 2.95611,1.626064 3.42651,0.864944 0.10877,-0.176 0.54077,-0.32 0.96,-0.32 0.41923,0 0.85123,0.144 0.96,0.32 0.27536,0.445543 8.37835,0.423363 8.65464,-0.02368 0.40505,-0.655392 -2.31857,-2.85632 -3.53464,-2.85632 -0.5698,0 -2.27689,-0.906089 -2.72551,-1.44664 -0.21607,-0.260349 -0.62722,-0.476563 -0.91367,-0.480477 -0.28645,-0.0039 -0.88082,-0.28871 -1.32082,-0.632883 -0.44,-0.344173 -1.1155,-0.62897 -1.50111,-0.632883 -0.38562,-0.0039 -0.79012,-0.151117 -0.89889,-0.327117 -0.11224,-0.181613 -1.7037,-0.32 -3.68,-0.32 -1.9763,0 -3.56776,0.138387 -3.68,0.32 -0.10877,0.176 -0.54077,0.32 -0.96,0.32 -0.41923,0 -0.85123,0.144 -0.96,0.32 -0.10877,0.176 -1.05327,0.32 -2.09889,0.32 -1.89901,0 -1.90111,-9.6e-4 -1.90111,-0.96 0,-0.804477 0.12654,-0.96 0.78111,-0.96 0.42962,0 0.87012,-0.144 0.97889,-0.32 0.10877,-0.176 0.81495,-0.32 1.56929,-0.32 1.23591,0 2.43071,-0.66936 2.43071,-1.36176 0,-0.258659 -1.91284,-1.19824 -2.43943,-1.19824 -0.23161,0 -0.93386,-0.288 -1.56057,-0.64 -0.62671,-0.352 -1.48659,-0.64 -1.91085,-0.64 -0.42426,0 -0.86038,-0.144 -0.96915,-0.32 -0.10877,-0.176 -1.11677,-0.32 -2.24,-0.32 -1.12323,0 -2.13123,0.144 -2.24,0.32 -0.10877,0.176 -0.54077,0.32 -0.96,0.32 -0.41923,0 -0.85123,0.144 -0.96,0.32 -0.10877,0.176 -0.6304,0.32 -1.15916,0.32 -0.88777,0 -0.95371,-0.07783 -0.86112,-1.016333 0.13196,-1.337379 1.46971,-2.128992 3.65068,-2.160278 2.1697,-0.03114 3.43881,-1.386183 2.33348,-2.491507 -0.19586,-0.195865 -0.265,-0.503546 -0.15364,-0.683736 0.27023,-0.437241 2.08231,-1.328146 2.70141,-1.328146 0.93511,0 2.28835,-1.643902 2.28835,-2.779869 0,-0.948092 0.0948,-1.060131 0.89717,-1.060131 0.49344,0 1.64544,-0.372881 2.56,-0.828624 1.61169,-0.803138 1.66283,-0.870316 1.66283,-2.184219 0,-1.670101 0.97934,-2.747157 2.49791,-2.747157 0.67011,0 1.15291,-0.218165 1.41635,-0.64 C 161.01409,19.168 161.45088,18.88 161.7649,18.88 c 0.31402,0 0.70595,-0.355111 0.87097,-0.789136 0.16502,-0.434025 1.81745,-2.260669 3.67208,-4.059208 1.85463,-1.79854 3.37205,-3.434327 3.37205,-3.635083 0,-0.6656636 1.46745,-1.7565728 2.36288,-1.7565728 1.52116,0 0.89956,1.0224176 -3.08288,5.0708318 -3.84431,3.90799 -4.16013,4.461956 -3.36,5.893511 0.61436,1.09917 1.9158,2.475658 2.34069,2.475658 0.20952,0 0.56241,0.218657 0.78421,0.485905 0.2218,0.267248 0.90402,0.723527 1.51605,1.013954 0.87892,0.417075 1.23862,0.449459 1.71157,0.154095 0.32934,-0.205675 1.10475,-0.373954 1.72314,-0.373954 0.96633,0 1.12434,0.105518 1.12434,0.750835 0,0.41296 -0.21702,1.185858 -0.48226,1.717552 -0.54811,1.098708 -5.49116,6.058476 -6.58659,6.608854 -1.12636,0.565927 -1.84173,2.090711 -1.86776,3.981085 -0.0233,1.693136 -0.0159,1.7061 2.43366,4.24 1.35138,1.39792 2.62044,2.541674 2.82013,2.541674 0.1997,0 0.77696,0.432 1.28282,0.96 0.50586,0.528 1.09116,0.96 1.30069,0.96 0.20952,0 0.56613,0.22313 0.79246,0.49584 0.22633,0.272714 1.01241,0.769584 1.74685,1.10416 0.73444,0.334576 1.52052,0.831447 1.74685,1.10416 0.22633,0.272711 0.58163,0.49584 0.78956,0.49584 0.20792,0 0.87429,0.517952 1.48082,1.151002 0.60652,0.633053 1.41507,1.27304 1.79678,1.422198 0.3817,0.149156 0.88634,0.675207 1.12141,1.168999 0.23508,0.493789 0.75078,1.039949 1.146,1.213683 0.39522,0.173734 0.71858,0.501299 0.71858,0.72792 0,0.226621 0.34601,0.543594 0.76892,0.704381 0.4229,0.160787 0.86102,0.441369 0.97359,0.623517 0.11257,0.182144 0.73856,0.58358 1.39108,0.892076 1.67004,0.789552 4.58577,3.018151 4.45642,3.406202 -0.43121,1.293623 -2.46198,0.779939 -4.23001,-1.069977 -0.528,-0.552458 -1.4412,-1.233133 -2.02934,-1.512618 -0.58814,-0.279482 -1.83233,-1.205479 -2.76487,-2.057767 -0.93254,-0.852288 -1.82475,-1.549616 -1.98269,-1.549616 -0.15794,0 -0.99633,-0.72 -1.8631,-1.6 -1.12683,-1.144028 -1.82477,-1.6 -2.44908,-1.6 -0.48024,0 -0.96215,0.144 -1.07092,0.32 -0.28102,0.454698 -3.15438,0.397623 -3.62399,-0.07199 -0.30931,-0.309315 -0.52436,-0.309315 -1.01965,0 -0.75559,0.471869 -5.63255,0.53121 -5.91636,0.07199 -0.38137,-0.617065 -2.39636,-0.331488 -3.68686,0.522525 -1.44664,0.957341 -1.49828,1.094538 -0.68794,1.827879 0.50715,0.458969 1.52283,0.529596 7.616,0.529596 3.8958,0 7.16635,0.132512 7.3348,0.297184 0.1672,0.163453 0.808,0.343453 1.424,0.4 0.73653,0.06761 1.12,0.267162 1.12,0.582816 0,0.397255 -0.71266,0.495508 -4.13404,0.569965 -2.53552,0.05518 -4.26162,-0.03762 -4.464,-0.24 -0.42415,-0.42415 -5.86051,-0.432998 -6.12196,-0.01 -0.10877,0.176 -0.81495,0.32 -1.56929,0.32 -0.96512,0 -1.54314,0.189639 -1.95071,0.64 -0.55892,0.617604 -0.55892,0.662397 0,1.28 0.52383,0.578823 0.98559,0.64 4.83071,0.64 2.48917,0 4.3335,-0.132646 4.44929,-0.32 0.12084,-0.195523 2.61036,-0.32 6.4,-0.32 3.78964,0 6.27916,0.124477 6.4,0.32 0.10877,0.176 0.54927,0.32 0.97889,0.32 0.65457,0 0.78111,0.155524 0.78111,0.960001 0,0.804476 -0.12654,0.96 -0.78111,0.96 -0.42962,0 -0.87012,-0.144 -0.97889,-0.32 -0.10877,-0.176 -1.11677,-0.32 -2.24,-0.32 -1.12323,0 -2.13123,0.144 -2.24,0.32 -0.28246,0.457033 -4.42917,0.402825 -4.896,-0.064 -0.29867,-0.298666 -0.46933,-0.298666 -0.768,0 -0.25113,0.251126 -1.5765,0.384 -3.83027,0.384 -2.85311,0 -3.64238,0.110153 -4.58573,0.64 -0.62671,0.352 -1.40077,0.64 -1.72014,0.64 -0.72683,0 -1.63231,0.971862 -1.66325,1.785196 -0.0332,0.871677 -1.05706,2.517101 -1.63617,2.629344 -0.26828,0.052 -0.72463,-0.266934 -1.01411,-0.708742 z m 6.14451,-24.689236 c 1.14443,-0.570921 1.21651,-0.902601 0.50572,-2.327398 -0.55109,-1.104691 -1.40945,-1.30889 -2.08423,-0.495827 -0.23431,0.282332 -0.76593,0.642566 -1.18137,0.800515 -1.04349,0.396736 -0.86868,1.683616 0.24904,1.833245 0.44,0.0589 0.9368,0.238902 1.104,0.4 0.37393,0.360275 0.21492,0.38407 1.40684,-0.210535 z m -5.48674,-1.208259 c 0.14074,-0.237434 0.67716,-0.633434 1.19204,-0.88 0.51487,-0.246566 1.20558,-0.933552 1.53491,-1.52663 0.56454,-1.016672 0.56764,-1.11273 0.0543,-1.680001 -0.29948,-0.330921 -0.71588,-0.601673 -0.92532,-0.601673 -0.20944,0 -0.64144,-0.288 -0.96,-0.64 -0.31856,-0.352 -0.90837,-0.64 -1.31071,-0.64 -0.40234,0 -0.82052,-0.144 -0.92929,-0.32 -0.10877,-0.176 -0.47289,-0.32 -0.80915,-0.32 -0.33626,0 -1.13694,-0.295187 -1.77929,-0.655974 -1.71708,-0.964427 -3.94066,-0.768468 -4.59677,0.405103 -0.4713,0.843002 -0.44802,0.907933 0.7746,2.16 0.69327,0.709978 1.42495,1.290871 1.62596,1.290871 0.201,0 0.62609,0.288 0.94465,0.64 0.31856,0.352 0.74365,0.64 0.94465,0.64 0.20101,0 0.92791,0.576 1.61535,1.28 1.28601,1.316992 2.17577,1.604627 2.6241,0.848304 z m 5.9107,-5.217901 c 0.32186,-0.291277 0.5852,-0.70096 0.5852,-0.910403 0,-0.209443 0.288,-0.641443 0.64,-0.96 0.352,-0.318556 0.64,-0.693518 0.64,-0.83325 0,-0.139732 -0.91691,-0.69166 -2.03758,-1.226506 -1.12067,-0.534847 -2.2183,-1.190203 -2.43918,-1.456347 -0.22088,-0.266143 -0.73547,-0.483897 -1.14354,-0.483897 -0.40806,0 -0.83093,-0.144 -0.9397,-0.32 -0.10877,-0.176 -0.47923,-0.32 -0.82323,-0.32 -0.344,0 -0.90261,-0.173089 -1.24137,-0.384643 -0.48799,-0.304759 -0.80277,-0.29101 -1.51565,0.0662 -2.81799,1.412022 -2.69784,2.144395 0.62025,3.780703 1.452,0.716051 3.13625,1.813971 3.74277,2.439824 1.24643,1.286147 2.88201,1.54048 3.91203,0.608319 z m 4.5052,-4.547996 c 0.89503,-0.922649 1.2,-1.505773 1.2,-2.294518 0,-1.069287 -0.74565,-2.227889 -1.43381,-2.227889 -0.20605,0 -0.71632,-0.363718 -1.13395,-0.808262 -0.85331,-0.908303 -2.38318,-1.751738 -3.1774,-1.751738 -0.28976,0 -0.67865,-0.151813 -0.8642,-0.337361 -0.18555,-0.185549 -1.16703,-0.293549 -2.18107,-0.24 -1.80669,0.09541 -1.85343,0.121827 -2.3284,1.316259 -0.47492,1.194317 -0.46651,1.237878 0.41694,2.16 0.49589,0.517606 1.06837,0.941102 1.27216,0.941102 0.2038,0 0.63117,0.288 0.94973,0.64 0.31856,0.352 0.75641,0.64 0.97302,0.64 0.74135,0 1.9546,0.809733 3.00394,2.004872 0.57714,0.65732 1.28642,1.195 1.57619,1.194844 0.28977,-1.57e-4 1.06685,-0.556945 1.72685,-1.237309 z" />
    <path
       id="path929"
       style="fill:#000000;stroke-width:1"
       d="m 91.43535,65.588309 c -1.02601,-0.412195 -1.52153,-1.834285 -0.88444,-2.538256 0.269,-0.297245 0.48909,-0.830787 0.48909,-1.185651 0,-0.354864 0.288,-0.905844 0.64,-1.2244 0.89403,-0.809085 0.79851,-1.75873 -0.307,-3.052087 -0.52084,-0.609354 -0.95284,-1.271354 -0.96,-1.47111 -0.0142,-0.397165 -1.39022,-1.396804 -1.92269,-1.396804 -0.18272,0 -0.57789,0.567079 -0.87816,1.260173 -0.59323,1.369309 -1.32915,1.742 -2.53469,1.283651 -0.96245,-0.36592 -1.29421,-1.16327 -0.80796,-1.941872 0.20377,-0.326297 0.3705,-0.759347 0.3705,-0.962332 0,-0.435504 0.82957,-1.140026 1.84,-1.56264 0.575,-0.240496 0.72,-0.556698 0.72,-1.570173 0,-0.697971 -0.144,-1.358032 -0.32,-1.466807 -0.176,-0.108774 -0.32,-0.472893 -0.32,-0.809152 0,-0.336259 -0.288,-1.124141 -0.64,-1.750848 -0.66243,-1.179401 -0.82889,-2.08 -0.38446,-2.08 0.14054,0 0.85498,0.576 1.58763,1.28 0.73266,0.704 1.61717,1.28 1.96558,1.28 0.34841,0 0.72248,0.144 0.83125,0.32 0.10877,0.176 0.54077,0.32 0.96,0.32 0.41923,0 0.85123,0.144 0.96,0.32 0.27671,0.447725 8.88999,0.422013 9.33988,-0.02787 0.25051,-0.250512 0.40807,-0.250512 0.56289,0 0.13218,0.213869 1.47751,0.347882 3.49232,0.347882 3.04059,0 4.99582,0.406493 5.00241,1.04 0.001,0.132 -3.2015,0.243203 -7.1175,0.247117 -6.57381,0.0066 -7.18137,0.05512 -7.92,0.632883 -0.60678,0.47463 -1.30972,0.627488 -2.9104,0.632883 -1.73463,0.0059 -2.21895,0.127207 -2.72,0.681552 -0.60472,0.669034 -0.60073,0.68184 0.49831,1.6 0.62718,0.523952 1.48681,0.925565 1.98112,0.925565 0.48026,0 0.9622,0.144 1.07097,0.32 0.11389,0.184282 1.81036,0.32 4,0.32 2.18964,0 3.88611,-0.135718 4,-0.32 0.10877,-0.176 1.40477,-0.32 2.88,-0.32 1.47523,0 2.77123,-0.144 2.88,-0.32 0.11957,-0.193475 2.39703,-0.32 5.76,-0.32 5.59632,0 6.3958,-0.161126 5.59388,-1.127379 -0.43514,-0.52432 -2.14881,-1.432631 -2.70287,-1.432631 -0.20386,0 -0.69004,-0.432 -1.08041,-0.96 -0.39037,-0.528 -0.89147,-0.96 -1.11355,-0.96 -0.22209,0 -1.04421,-0.652531 -1.82693,-1.45007 -1.2863,-1.31064 -5.33845,-3.66993 -6.30322,-3.66993 -0.21309,0 -0.90019,-0.288 -1.5269,-0.64 -0.70935,-0.398416 -1.73262,-0.64 -2.71085,-0.64 -0.86426,0 -1.66038,-0.144 -1.76915,-0.32 -0.33208,-0.537312 -2.3145,-0.357091 -3.52,0.32 -1.22282,0.686816 -4.44071,0.901341 -4.8,0.32 -0.10877,-0.176 -0.54077,-0.32 -0.96,-0.32 -0.41923,0 -0.85123,-0.144 -0.96,-0.32 -0.10877,-0.176 -1.24985,-0.32 -2.53573,-0.32 -1.85342,0 -2.50658,0.13264 -3.15159,0.64 -0.44749,0.352 -0.90999,0.64 -1.02777,0.64 -0.34428,0 -1.94234,1.70792 -2.17526,2.324803 -0.26477,0.701268 -1.53731,1.211728 -2.43531,0.976896 -0.47876,-0.1252 -0.67434,-0.430582 -0.67434,-1.05295 0,-0.690474 0.37651,-1.158182 1.77319,-2.202678 0.97525,-0.729341 1.88066,-1.326071 2.01203,-1.326071 0.50838,0 3.17103,-3.113277 3.8628,-4.516531 0.95313,-1.933434 0.8176,-2.968544 -0.407,-3.108487 -0.50544,-0.05776 -1.07424,0.05024 -1.264,0.24 -0.63781,0.637812 -2.04528,0.410381 -2.24757,-0.363181 -0.21523,-0.823017 0.56806,-1.851801 1.40991,-1.851801 0.49245,0 1.93182,-0.614323 3.98064,-1.698932 0.352,-0.186343 1.0074,-0.524597 1.45646,-0.751676 0.44905,-0.227078 1.15815,-0.776587 1.57578,-1.221131 l 0.75932,-0.808261 -0.69578,-0.740625 c -0.38268,-0.407343 -0.69466,-0.947343 -0.69328,-1.2 0.003,-0.528845 1.40209,-1.259375 2.41213,-1.259375 0.91989,0 2.59881,-0.860754 2.82411,-1.447864 0.0996,-0.259675 0.43977,-0.472136 0.75583,-0.472136 0.66385,0 8.38984,-7.726136 9.03772,-9.037886 0.38946,-0.788537 1.85293,-2.052709 2.06951,-1.787684 0.0475,0.05806 0.17093,0.55146 0.27441,1.096438 0.16392,0.863351 0.005,1.170493 -1.23404,2.386626 -0.78219,0.767667 -1.42217,1.559458 -1.42217,1.759536 0,0.200078 -0.288,0.624414 -0.64,0.942969 -0.352,0.318556 -0.64,0.840494 -0.64,1.159863 0,0.319369 -0.288,1.093431 -0.64,1.720138 -1.12901,2.010103 -0.62626,4.96 0.84533,4.96 0.17321,0 0.72881,0.432 1.23467,0.96 0.50586,0.528 1.08186,0.96 1.28,0.96 0.19814,0 0.77414,0.432 1.28,0.96 0.57022,0.595186 1.24295,0.96 1.77027,0.96 0.82662,0 1.90973,-0.844733 1.90973,-1.489417 0,-0.364822 1.35729,-1.710583 1.72524,-1.710583 0.3463,0 2.11476,-1.811133 2.11476,-2.165789 0,-0.162261 0.288,-0.555656 0.64,-0.874211 0.352,-0.318556 0.64,-0.747773 0.64,-0.953816 0,-0.548335 1.3933,-1.766184 2.02062,-1.766184 0.8247,0 0.74179,2.109154 -0.10062,2.56 -0.352,0.188384 -0.64,0.519702 -0.64,0.736261 0,0.216558 -1.73924,2.119492 -3.86499,4.228741 -5.22638,5.185823 -5.73501,5.94799 -5.73501,8.593769 0,1.145901 0.144,2.172455 0.32,2.281229 0.176,0.108774 0.32,0.662685 0.32,1.230915 0,0.810106 0.33052,1.358691 1.53099,2.541114 0.84205,0.829386 1.68373,1.507971 1.87041,1.507971 0.18667,0 0.60004,0.288 0.9186,0.64 0.31856,0.352 0.74777,0.64 0.95381,0.64 0.20605,0 0.72373,0.374749 1.15041,0.832775 1.19304,1.280694 4.4045,3.647225 4.9494,3.647225 0.26755,0 0.56961,0.216679 0.67124,0.481508 0.10162,0.264828 0.7091,0.720208 1.34996,1.011952 0.64085,0.291744 1.54884,0.882185 2.01776,1.312092 0.46892,0.429904 1.47692,1.091776 2.24,1.470823 1.76073,0.874608 1.97286,1.785923 0.56032,2.407177 -0.9724,0.42768 -1.0366,0.407639 -1.79389,-0.56 -0.43197,-0.551955 -1.03588,-1.003552 -1.34202,-1.003552 -0.30615,0 -0.88239,-0.440614 -1.28055,-0.979145 -0.49875,-0.674602 -0.94047,-0.945946 -1.42017,-0.872403 -0.38295,0.05871 -0.65487,0.299504 -0.60428,0.535104 0.20237,0.942438 -0.99586,1.29592 -4.42799,1.306268 -2.22492,0.0067 -3.50965,0.143828 -3.76799,0.402164 -0.30931,0.309315 -0.52436,0.309315 -1.01965,0 -0.75404,-0.470906 -3.39782,-0.522672 -3.67636,-0.07199 -0.10877,0.176 -0.97277,0.32 -1.92,0.32 -0.94723,0 -1.81123,0.144 -1.92,0.32 -0.10877,0.176 -0.45705,0.32 -0.77394,0.32 -0.85459,0 -4.34564,1.881297 -5.79811,3.124554 -1.01077,0.865184 -1.26795,1.303597 -1.26795,2.161498 0,0.591897 -0.144,1.165174 -0.32,1.273949 -0.176,0.108774 -0.32,0.533865 -0.32,0.944649 0,1.044416 -0.81355,1.346458 -2.16465,0.803658 z m 3.5831,-7.004499 c 0.30671,-0.338903 0.50705,-0.878903 0.44522,-1.200001 -0.0888,-0.461299 -0.41277,-0.583808 -1.54367,-0.583808 -1.1309,0 -1.45483,0.122509 -1.54367,0.583808 -0.13702,0.711492 0.80192,1.816193 1.54367,1.816193 0.29744,0 0.79175,-0.277287 1.09845,-0.616192 z M 92.8,41.600001 c 0.10877,-0.176 0.68477,-0.32 1.28,-0.32 0.59523,0 1.17123,-0.144 1.28,-0.32 0.10877,-0.176 0.50193,-0.32 0.87369,-0.32 0.91718,0 1.84631,-0.89969 1.84631,-1.787805 0,-0.774723 -0.92544,-1.554902 -2.94641,-2.483936 -0.65252,-0.299961 -1.26738,-0.676413 -1.36636,-0.83656 -0.26754,-0.432889 -2.10092,-1.291699 -2.75751,-1.291699 -0.31457,0 -0.66095,-0.144 -0.76972,-0.32 -0.10877,-0.176 -0.41635,-0.32 -0.6835,-0.32 -0.68598,0 -2.3565,1.751962 -2.3565,2.471386 0,0.330336 -0.15271,0.753324 -0.33936,0.939971 -0.18664,0.186646 -0.29464,1.043446 -0.24,1.904 0.0886,1.394688 0.18626,1.576275 0.89936,1.671741 0.44,0.0589 0.9368,0.238902 1.104,0.4 0.1672,0.161094 0.6267,0.292902 1.02111,0.292902 0.39442,0 0.80612,0.144 0.91489,0.32 0.10877,0.176 0.61277,0.32 1.12,0.32 0.50723,0 1.01123,-0.144 1.12,-0.32 z m 12.90852,-0.607757 c 0.0597,-0.422265 -0.0409,-1.070265 -0.22351,-1.44 -0.18261,-0.369734 -0.37691,-0.960243 -0.43178,-1.312243 -0.20351,-1.305514 -2.30916,-0.919728 -4.17323,0.764595 -1.0151,0.917216 -1.09971,1.50224 -0.33884,2.342992 0.44919,0.496343 0.92511,0.582211 2.8,0.505197 2.10963,-0.08666 2.26601,-0.143501 2.36736,-0.860541 z m -4.33486,-4.080675 c 0.56203,-0.29064 1.95158,-1.435581 3.0879,-2.544317 2.03863,-1.989162 2.05815,-2.024576 1.47263,-2.671568 -0.32636,-0.360626 -0.71214,-0.655683 -0.85729,-0.655683 -0.14516,0 -1.02284,-0.575381 -1.95041,-1.278623 -0.92757,-0.703243 -1.84417,-1.279243 -2.03689,-1.28 -0.19273,-7.58e-4 -0.61104,-0.289377 -0.9296,-0.641377 -0.35534,-0.392649 -0.98559,-0.64 -1.63071,-0.64 -0.57834,0 -1.14052,-0.144 -1.24929,-0.32 -0.10877,-0.176 -0.8795,-0.32 -1.71273,-0.32 -1.40275,0 -1.62653,0.118207 -3.02112,1.595813 C 91.71777,29.033511 91.04,30.0365 91.04,30.384679 c 0,0.890226 1.76791,2.801031 3.15423,3.409178 2.29417,1.006403 2.57045,1.182989 3.76528,2.406605 1.34036,1.372656 1.90673,1.490621 3.41415,0.711107 z M 98.90022,24.162593 c 0.99607,-2.099067 -0.0809,-2.772642 -1.75561,-1.097977 -1.42643,1.426437 -1.30759,2.215385 0.33371,2.215385 0.70407,0 1.0032,-0.235075 1.4219,-1.117408 z" />
  </g>
</svg>
